<svg version="1.1" xmlns="http://www.w3.org/2000/svg" xmlns:xlink="http://www.w3.org/1999/xlink" width="999.2783203125" height="570"><defs/><g><g transform="translate(-20,-46) scale(1,1)"><rect fill="#C0C0C0" stroke="none" x="135" y="303" width="89.87548828125" height="57" opacity="0.2"/></g><g transform="translate(-20,-46) scale(1,1)"><rect fill="#ffffff" stroke="none" x="128" y="296" width="89.87548828125" height="57"/></g><g transform="translate(-20,-46) scale(1,1)"><path fill="none" stroke="#000000" d="M 128 296 L 217.87548828125 296 L 217.87548828125 353 L 128 353 L 128 296 Z Z" stroke-miterlimit="10"/></g><g transform="translate(-20,-46) scale(1,1)"><path fill="none" stroke="#000000" d="M 128 321 L 217.87548828125 321" stroke-miterlimit="10"/></g><g transform="translate(-20,-46) scale(1,1)"><path fill="none" stroke="#000000" d="M 128 344 L 217.87548828125 344" stroke-miterlimit="10"/></g><g transform="translate(-20,-46) scale(1,1)"><g><path fill="none" stroke="none"/><text fill="#000000" stroke="none" font-family="Roboto" font-size="13px" font-style="normal" font-weight="bold" text-decoration="none" x="146.56005859375" y="315.5">DBModel</text></g></g><g transform="translate(-20,-46) scale(1,1)"><g><path fill="none" stroke="none"/><text fill="#000000" stroke="none" font-family="Roboto" font-size="13px" font-style="normal" font-weight="normal" text-decoration="none" x="133" y="338.5">#name: String</text></g></g><g transform="translate(-20,-46) scale(1,1)"><rect fill="#C0C0C0" stroke="none" x="135" y="63" width="96.55322265625" height="72" opacity="0.2"/></g><g transform="translate(-20,-46) scale(1,1)"><rect fill="#ffffff" stroke="none" x="128" y="56" width="96.55322265625" height="72"/></g><g transform="translate(-20,-46) scale(1,1)"><path fill="none" stroke="#000000" d="M 128 56 L 224.55322265625 56 L 224.55322265625 128 L 128 128 L 128 56 Z Z" stroke-miterlimit="10"/></g><g transform="translate(-20,-46) scale(1,1)"><path fill="none" stroke="#000000" d="M 128 81 L 224.55322265625 81" stroke-miterlimit="10"/></g><g transform="translate(-20,-46) scale(1,1)"><path fill="none" stroke="#000000" d="M 128 119 L 224.55322265625 119" stroke-miterlimit="10"/></g><g transform="translate(-20,-46) scale(1,1)"><g><path fill="none" stroke="none"/><text fill="#000000" stroke="none" font-family="Roboto" font-size="13px" font-style="normal" font-weight="bold" text-decoration="none" x="142.906982421875" y="75.5">DBAttribute</text></g></g><g transform="translate(-20,-46) scale(1,1)"><g><path fill="none" stroke="none"/><text fill="#000000" stroke="none" font-family="Roboto" font-size="13px" font-style="normal" font-weight="normal" text-decoration="none" x="133" y="98.5">#name: String</text></g></g><g transform="translate(-20,-46) scale(1,1)"><g><path fill="none" stroke="none"/><text fill="#000000" stroke="none" font-family="Roboto" font-size="13px" font-style="normal" font-weight="normal" text-decoration="none" x="133" y="113.5">#dbtype: String</text></g></g><g transform="translate(-20,-46) scale(1,1)"><path fill="none" stroke="#000000" d="M 173 295 L 175 129" stroke-miterlimit="10"/></g><g transform="translate(-20,-46) scale(1,1)"><path fill="#FFFFFF" stroke="none" d="M 168.91322071526815 284.787349262905 L 173 295 L 177.33164524464306 284.88877606446374 L 173.26504100512503 273.0015965746238"/></g><g transform="translate(-20,-46) scale(1,1)"><path fill="none" stroke="#000000" d="M 168.91322071526815 284.787349262905 L 173 295 L 177.33164524464306 284.88877606446374 L 173.26504100512503 273.0015965746238 L 168.91322071526815 284.787349262905" stroke-miterlimit="10"/></g><g transform="translate(-20,-46) scale(1,1)"><g><path fill="none" stroke="none"/><text fill="#000000" stroke="none" font-family="Roboto" font-size="20px" font-style="normal" font-weight="normal" text-decoration="none" x="142.5" y="282.5">*</text></g></g><g transform="translate(-20,-46) scale(1,1)"><g><path fill="none" stroke="none"/><text fill="#000000" stroke="none" font-family="Roboto" font-size="15px" font-style="normal" font-weight="normal" text-decoration="none" x="32.1513671875" y="141.5">#attribut de</text></g></g><g transform="translate(-20,-46) scale(1,1)"><g><path fill="none" stroke="none"/><text fill="#000000" stroke="none" font-family="Roboto" font-size="20px" font-style="normal" font-weight="normal" text-decoration="none" x="131.5" y="162.5">1..*</text></g></g><g transform="translate(-20,-46) scale(1,1)"><rect fill="#C0C0C0" stroke="none" x="527" y="463" width="94.16015625" height="150" opacity="0.2"/></g><g transform="translate(-20,-46) scale(1,1)"><rect fill="#ffffff" stroke="none" x="520" y="456" width="94.16015625" height="150"/></g><g transform="translate(-20,-46) scale(1,1)"><path fill="none" stroke="#000000" d="M 520 456 L 614.16015625 456 L 614.16015625 606 L 520 606 L 520 456 Z Z" stroke-miterlimit="10"/></g><g transform="translate(-20,-46) scale(1,1)"><path fill="none" stroke="#000000" d="M 520 494 L 614.16015625 494" stroke-miterlimit="10"/></g><g transform="translate(-20,-46) scale(1,1)"><g><path fill="none" stroke="none"/><text fill="#000000" stroke="none" font-family="Roboto" font-size="13px" font-style="normal" font-weight="normal" text-decoration="none" x="524.5" y="473.5">«enumeration»</text></g></g><g transform="translate(-20,-46) scale(1,1)"><g><path fill="none" stroke="none"/><text fill="#000000" stroke="none" font-family="Roboto" font-size="13px" font-style="normal" font-weight="bold" text-decoration="none" x="527.473876953125" y="488.5">DBLockTypes</text></g></g><g transform="translate(-20,-46) scale(1,1)"><g><path fill="none" stroke="none"/><text fill="#000000" stroke="none" font-family="Roboto" font-size="13px" font-style="normal" font-weight="normal" text-decoration="none" x="525" y="511.5">XE</text></g></g><g transform="translate(-20,-46) scale(1,1)"><g><path fill="none" stroke="none"/><text fill="#000000" stroke="none" font-family="Roboto" font-size="13px" font-style="normal" font-weight="normal" text-decoration="none" x="525" y="526.5">X</text></g></g><g transform="translate(-20,-46) scale(1,1)"><g><path fill="none" stroke="none"/><text fill="#000000" stroke="none" font-family="Roboto" font-size="13px" font-style="normal" font-weight="normal" text-decoration="none" x="525" y="541.5">SE</text></g></g><g transform="translate(-20,-46) scale(1,1)"><g><path fill="none" stroke="none"/><text fill="#000000" stroke="none" font-family="Roboto" font-size="13px" font-style="normal" font-weight="normal" text-decoration="none" x="525" y="556.5">S</text></g></g><g transform="translate(-20,-46) scale(1,1)"><g><path fill="none" stroke="none"/><text fill="#000000" stroke="none" font-family="Roboto" font-size="13px" font-style="normal" font-weight="normal" text-decoration="none" x="525" y="571.5">UE</text></g></g><g transform="translate(-20,-46) scale(1,1)"><g><path fill="none" stroke="none"/><text fill="#000000" stroke="none" font-family="Roboto" font-size="13px" font-style="normal" font-weight="normal" text-decoration="none" x="525" y="586.5">U</text></g></g><g transform="translate(-20,-46) scale(1,1)"><g><path fill="none" stroke="none"/><text fill="#000000" stroke="none" font-family="Roboto" font-size="13px" font-style="normal" font-weight="normal" text-decoration="none" x="525" y="601.5">None</text></g></g><g transform="translate(-20,-46) scale(1,1)"><rect fill="#C0C0C0" stroke="none" x="847" y="463" width="169.2783203125" height="105" opacity="0.2"/></g><g transform="translate(-20,-46) scale(1,1)"><rect fill="#ffffff" stroke="none" x="840" y="456" width="169.2783203125" height="105"/></g><g transform="translate(-20,-46) scale(1,1)"><path fill="none" stroke="#000000" d="M 840 456 L 1009.2783203125 456 L 1009.2783203125 561 L 840 561 L 840 456 Z Z" stroke-miterlimit="10"/></g><g transform="translate(-20,-46) scale(1,1)"><path fill="none" stroke="#000000" d="M 840 494 L 1009.2783203125 494" stroke-miterlimit="10"/></g><g transform="translate(-20,-46) scale(1,1)"><g><path fill="none" stroke="none"/><text fill="#000000" stroke="none" font-family="Roboto" font-size="13px" font-style="normal" font-weight="normal" text-decoration="none" x="882.05908203125" y="473.5">«enumeration»</text></g></g><g transform="translate(-20,-46) scale(1,1)"><g><path fill="none" stroke="none"/><text fill="#000000" stroke="none" font-family="Roboto" font-size="13px" font-style="normal" font-weight="bold" text-decoration="none" x="845.81396484375" y="488.5">DBTransactionActionTypes</text></g></g><g transform="translate(-20,-46) scale(1,1)"><g><path fill="none" stroke="none"/><text fill="#000000" stroke="none" font-family="Roboto" font-size="13px" font-style="normal" font-weight="normal" text-decoration="none" x="845" y="511.5">find</text></g></g><g transform="translate(-20,-46) scale(1,1)"><g><path fill="none" stroke="none"/><text fill="#000000" stroke="none" font-family="Roboto" font-size="13px" font-style="normal" font-weight="normal" text-decoration="none" x="845" y="526.5">upd</text></g></g><g transform="translate(-20,-46) scale(1,1)"><g><path fill="none" stroke="none"/><text fill="#000000" stroke="none" font-family="Roboto" font-size="13px" font-style="normal" font-weight="normal" text-decoration="none" x="845" y="541.5">rollback</text></g></g><g transform="translate(-20,-46) scale(1,1)"><g><path fill="none" stroke="none"/><text fill="#000000" stroke="none" font-family="Roboto" font-size="13px" font-style="normal" font-weight="normal" text-decoration="none" x="845" y="556.5">commit</text></g></g><g transform="translate(-20,-46) scale(1,1)"><rect fill="#C0C0C0" stroke="none" x="679" y="271" width="208.64013671875" height="85" opacity="0.2"/></g><g transform="translate(-20,-46) scale(1,1)"><rect fill="#ffffff" stroke="none" x="672" y="264" width="208.64013671875" height="85"/></g><g transform="translate(-20,-46) scale(1,1)"><path fill="none" stroke="#000000" d="M 672 264 L 880.64013671875 264 L 880.64013671875 349 L 672 349 L 672 264 Z Z" stroke-miterlimit="10"/></g><g transform="translate(-20,-46) scale(1,1)"><path fill="none" stroke="#000000" d="M 672 289 L 880.64013671875 289" stroke-miterlimit="10"/></g><g transform="translate(-20,-46) scale(1,1)"><path fill="none" stroke="#000000" d="M 672 327 L 880.64013671875 327" stroke-miterlimit="10"/></g><g transform="translate(-20,-46) scale(1,1)"><g><path fill="none" stroke="none"/><text fill="#000000" stroke="none" font-family="Roboto" font-size="13px" font-style="normal" font-weight="bold" text-decoration="none" x="714.890625" y="283.5">DBTransactionAction</text></g></g><g transform="translate(-20,-46) scale(1,1)"><g><path fill="none" stroke="none"/><text fill="#000000" stroke="none" font-family="Roboto" font-size="13px" font-style="normal" font-weight="normal" text-decoration="none" x="677" y="306.5">#source: String</text></g></g><g transform="translate(-20,-46) scale(1,1)"><g><path fill="none" stroke="none"/><text fill="#000000" stroke="none" font-family="Roboto" font-size="13px" font-style="normal" font-weight="normal" text-decoration="none" x="677" y="321.5">#index: Integer</text></g></g><g transform="translate(-20,-46) scale(1,1)"><g><path fill="none" stroke="none"/><text fill="#000000" stroke="none" font-family="Roboto" font-size="13px" font-style="normal" font-weight="normal" text-decoration="none" x="677" y="344.5">+complete(): DBTransactionAction</text></g></g><g transform="translate(-20,-46) scale(1,1)"><rect fill="#C0C0C0" stroke="none" x="711" y="63" width="95.68359375" height="44" opacity="0.2"/></g><g transform="translate(-20,-46) scale(1,1)"><rect fill="#ffffff" stroke="none" x="704" y="56" width="95.68359375" height="44"/></g><g transform="translate(-20,-46) scale(1,1)"><path fill="none" stroke="#000000" d="M 704 56 L 799.68359375 56 L 799.68359375 100 L 704 100 L 704 56 Z Z" stroke-miterlimit="10"/></g><g transform="translate(-20,-46) scale(1,1)"><path fill="none" stroke="#000000" d="M 704 81 L 799.68359375 81" stroke-miterlimit="10"/></g><g transform="translate(-20,-46) scale(1,1)"><path fill="none" stroke="#000000" d="M 704 91 L 799.68359375 91" stroke-miterlimit="10"/></g><g transform="translate(-20,-46) scale(1,1)"><g><path fill="none" stroke="none"/><text fill="#000000" stroke="none" font-family="Roboto" font-size="13px" font-style="normal" font-weight="bold" text-decoration="none" x="709.049072265625" y="75.5">DBTransaction</text></g></g><g transform="translate(-20,-46) scale(1,1)"><path fill="none" stroke="#000000" d="M 771 263 L 754 101" stroke-miterlimit="10"/></g><g transform="translate(-20,-46) scale(1,1)"><path fill="#FFFFFF" stroke="none" d="M 765.7528405743211 253.332150292774 L 771 263 L 774.1259000756074 252.4534959006637 L 768.7039654246854 241.12014110582612"/></g><g transform="translate(-20,-46) scale(1,1)"><path fill="none" stroke="#000000" d="M 765.7528405743211 253.332150292774 L 771 263 L 774.1259000756074 252.4534959006637 L 768.7039654246854 241.12014110582612 L 765.7528405743211 253.332150292774" stroke-miterlimit="10"/></g><g transform="translate(-20,-46) scale(1,1)"><g><path fill="none" stroke="none"/><text fill="#000000" stroke="none" font-family="Roboto" font-size="15px" font-style="normal" font-weight="normal" text-decoration="none" x="813.5" y="253.5">#action</text></g></g><g transform="translate(-20,-46) scale(1,1)"><g><path fill="none" stroke="none"/><text fill="#000000" stroke="none" font-family="Roboto" font-size="20px" font-style="normal" font-weight="normal" text-decoration="none" x="776.5" y="249.5">*</text></g></g><g transform="translate(-20,-46) scale(1,1)"><g><path fill="none" stroke="none"/><text fill="#000000" stroke="none" font-family="Roboto" font-size="20px" font-style="normal" font-weight="normal" text-decoration="none" x="758.5" y="128.5">*</text></g></g><g transform="translate(-20,-46) scale(1,1)"><rect fill="#C0C0C0" stroke="none" x="399" y="175" width="118.7255859375" height="70" opacity="0.2"/></g><g transform="translate(-20,-46) scale(1,1)"><rect fill="#ffffff" stroke="none" x="392" y="168" width="118.7255859375" height="70"/></g><g transform="translate(-20,-46) scale(1,1)"><path fill="none" stroke="#000000" d="M 392 168 L 510.7255859375 168 L 510.7255859375 238 L 392 238 L 392 168 Z Z" stroke-miterlimit="10"/></g><g transform="translate(-20,-46) scale(1,1)"><path fill="none" stroke="#000000" d="M 392 206 L 510.7255859375 206" stroke-miterlimit="10"/></g><g transform="translate(-20,-46) scale(1,1)"><path fill="none" stroke="#000000" d="M 392 216 L 510.7255859375 216" stroke-miterlimit="10"/></g><g transform="translate(-20,-46) scale(1,1)"><g><path fill="none" stroke="none"/><text fill="#000000" stroke="none" font-family="Roboto" font-size="13px" font-style="normal" font-weight="normal" text-decoration="none" x="419.697509765625" y="185.5">«interface»</text></g></g><g transform="translate(-20,-46) scale(1,1)"><g><path fill="none" stroke="none"/><text fill="#000000" stroke="none" font-family="Roboto" font-size="13px" font-style="normal" font-weight="bold" text-decoration="none" x="420.700439453125" y="200.5">DBGranule</text></g></g><g transform="translate(-20,-46) scale(1,1)"><g><path fill="none" stroke="none"/><text fill="#000000" stroke="none" font-family="Roboto" font-size="13px" font-style="normal" font-weight="normal" text-decoration="none" x="397" y="233.5">+getName(): String</text></g></g><g transform="translate(-20,-46) scale(1,1)"><path fill="none" stroke="#000000" d="M 512 222 L 671 273" stroke-miterlimit="10"/></g><g transform="translate(-20,-46) scale(1,1)"><path fill="#FFFFFF" stroke="none" d="M 660.0372426303838 273.90440635497873 L 671 273 L 662.6086480568879 265.88767178999524 L 650.0512630362965 266.28059380409513"/></g><g transform="translate(-20,-46) scale(1,1)"><path fill="none" stroke="#000000" d="M 660.0372426303838 273.90440635497873 L 671 273 L 662.6086480568879 265.88767178999524 L 650.0512630362965 266.28059380409513 L 660.0372426303838 273.90440635497873" stroke-miterlimit="10"/></g><g transform="translate(-20,-46) scale(1,1)"><g><path fill="none" stroke="none"/><text fill="#000000" stroke="none" font-family="Roboto" font-size="15px" font-style="normal" font-weight="normal" text-decoration="none" x="510.5" y="222.5">#cible de</text></g></g><g transform="translate(-20,-46) scale(1,1)"><g><path fill="none" stroke="none"/><text fill="#000000" stroke="none" font-family="Roboto" font-size="20px" font-style="normal" font-weight="normal" text-decoration="none" x="522.5" y="249.5">1</text></g></g><g transform="translate(-20,-46) scale(1,1)"><g><path fill="none" stroke="none"/><text fill="#000000" stroke="none" font-family="Roboto" font-size="20px" font-style="normal" font-weight="normal" text-decoration="none" x="641.5" y="287.5">*</text></g></g><g transform="translate(-20,-46) scale(1,1)"><path fill="none" stroke="#000000" d="M 219 304 L 391 229" stroke-miterlimit="10"/></g><g transform="translate(-20,-46) scale(1,1)"><path fill="#FFFFFF" stroke="none" d="M 375.73394204238036 244.84132173887642 L 391 229 L 369.0037608716629 229.4067729206977"/></g><g transform="translate(-20,-46) scale(1,1)"><path fill="none" stroke="#000000" d="M 375.73394204238036 244.84132173887642 L 391 229 L 369.0037608716629 229.4067729206977 L 375.73394204238036 244.84132173887642" stroke-miterlimit="10"/></g><g transform="translate(-20,-46) scale(1,1)"><path fill="none" stroke="#000000" d="M 226 112 L 391 179" stroke-miterlimit="10"/></g><g transform="translate(-20,-46) scale(1,1)"><path fill="#FFFFFF" stroke="none" d="M 369.00053576675566 179.1535364784135 L 391 179 L 375.3354629731563 163.55259634324773"/></g><g transform="translate(-20,-46) scale(1,1)"><path fill="none" stroke="#000000" d="M 369.00053576675566 179.1535364784135 L 391 179 L 375.3354629731563 163.55259634324773 L 369.00053576675566 179.1535364784135" stroke-miterlimit="10"/></g><g transform="translate(-20,-46) scale(1,1)"><path fill="none" stroke="#000000" d="M 615 479 L 735 350" stroke-miterlimit="10"/></g><g transform="translate(-20,-46) scale(1,1)"><path fill="#FFFFFF" stroke="none" d="M 731.1603151633743 360.30809489456647 L 735 350 L 724.9960090133404 354.57385661546516 L 720.0157132654997 366.10810823958786"/></g><g transform="translate(-20,-46) scale(1,1)"><path fill="none" stroke="#000000" d="M 731.1603151633743 360.30809489456647 L 735 350 L 724.9960090133404 354.57385661546516 L 720.0157132654997 366.10810823958786 L 731.1603151633743 360.30809489456647" stroke-miterlimit="10"/></g><g transform="translate(-20,-46) scale(1,1)"><g><path fill="none" stroke="none"/><text fill="#000000" stroke="none" font-family="Roboto" font-size="15px" font-style="normal" font-weight="normal" text-decoration="none" x="456.524169921875" y="444.5">#type de verrou demandé</text></g></g><g transform="translate(-20,-46) scale(1,1)"><g><path fill="none" stroke="none"/><text fill="#000000" stroke="none" font-family="Roboto" font-size="20px" font-style="normal" font-weight="normal" text-decoration="none" x="632.5" y="480.5">1</text></g></g><g transform="translate(-20,-46) scale(1,1)"><g><path fill="none" stroke="none"/><text fill="#000000" stroke="none" font-family="Roboto" font-size="20px" font-style="normal" font-weight="normal" text-decoration="none" x="725.06396484375" y="383.5">*</text></g></g><g transform="translate(-20,-46) scale(1,1)"><path fill="none" stroke="#000000" d="M 885 455 L 808 350" stroke-miterlimit="10"/></g><g transform="translate(-20,-46) scale(1,1)"><path fill="#FFFFFF" stroke="none" d="M 817.4044127846545 355.70587593414257 L 808 350 L 810.6152604874653 360.68458761874797 L 821.0100005998054 367.74090990882553"/></g><g transform="translate(-20,-46) scale(1,1)"><path fill="none" stroke="#000000" d="M 817.4044127846545 355.70587593414257 L 808 350 L 810.6152604874653 360.68458761874797 L 821.0100005998054 367.74090990882553 L 817.4044127846545 355.70587593414257" stroke-miterlimit="10"/></g><g transform="translate(-20,-46) scale(1,1)"><g><path fill="none" stroke="none"/><text fill="#000000" stroke="none" font-family="Roboto" font-size="15px" font-style="normal" font-weight="normal" text-decoration="none" x="749.46142578125" y="447.5">#type de l'action</text></g></g><g transform="translate(-20,-46) scale(1,1)"><g><path fill="none" stroke="none"/><text fill="#000000" stroke="none" font-family="Roboto" font-size="20px" font-style="normal" font-weight="normal" text-decoration="none" x="887.5" y="442.5">1</text></g></g><g transform="translate(-20,-46) scale(1,1)"><g><path fill="none" stroke="none"/><text fill="#000000" stroke="none" font-family="Roboto" font-size="20px" font-style="normal" font-weight="normal" text-decoration="none" x="824.5" y="377.5">*</text></g></g></g></svg>