<svg version="1.1" xmlns="http://www.w3.org/2000/svg" xmlns:xlink="http://www.w3.org/1999/xlink" width="747.68359375" height="442"><defs/><g><g transform="translate(-182,-158) scale(1,1)"><rect fill="#C0C0C0" stroke="none" x="199" y="183" width="89.87548828125" height="57" opacity="0.2"/></g><g transform="translate(-182,-158) scale(1,1)"><rect fill="#ffffff" stroke="none" x="192" y="176" width="89.87548828125" height="57"/></g><g transform="translate(-182,-158) scale(1,1)"><path fill="none" stroke="#000000" d="M 192 176 L 281.87548828125 176 L 281.87548828125 233 L 192 233 L 192 176 Z Z" stroke-miterlimit="10"/></g><g transform="translate(-182,-158) scale(1,1)"><path fill="none" stroke="#000000" d="M 192 201 L 281.87548828125 201" stroke-miterlimit="10"/></g><g transform="translate(-182,-158) scale(1,1)"><path fill="none" stroke="#000000" d="M 192 224 L 281.87548828125 224" stroke-miterlimit="10"/></g><g transform="translate(-182,-158) scale(1,1)"><g><path fill="none" stroke="none"/><text fill="#000000" stroke="none" font-family="Roboto" font-size="13px" font-style="normal" font-weight="bold" text-decoration="none" x="210.56005859375" y="195.5">DBModel</text></g></g><g transform="translate(-182,-158) scale(1,1)"><g><path fill="none" stroke="none"/><text fill="#000000" stroke="none" font-family="Roboto" font-size="13px" font-style="normal" font-weight="normal" text-decoration="none" x="197" y="218.5">#name: String</text></g></g><g transform="translate(-182,-158) scale(1,1)"><rect fill="#C0C0C0" stroke="none" x="375" y="175" width="96.55322265625" height="72" opacity="0.2"/></g><g transform="translate(-182,-158) scale(1,1)"><rect fill="#ffffff" stroke="none" x="368" y="168" width="96.55322265625" height="72"/></g><g transform="translate(-182,-158) scale(1,1)"><path fill="none" stroke="#000000" d="M 368 168 L 464.55322265625 168 L 464.55322265625 240 L 368 240 L 368 168 Z Z" stroke-miterlimit="10"/></g><g transform="translate(-182,-158) scale(1,1)"><path fill="none" stroke="#000000" d="M 368 193 L 464.55322265625 193" stroke-miterlimit="10"/></g><g transform="translate(-182,-158) scale(1,1)"><path fill="none" stroke="#000000" d="M 368 231 L 464.55322265625 231" stroke-miterlimit="10"/></g><g transform="translate(-182,-158) scale(1,1)"><g><path fill="none" stroke="none"/><text fill="#000000" stroke="none" font-family="Roboto" font-size="13px" font-style="normal" font-weight="bold" text-decoration="none" x="382.906982421875" y="187.5">DBAttribute</text></g></g><g transform="translate(-182,-158) scale(1,1)"><g><path fill="none" stroke="none"/><text fill="#000000" stroke="none" font-family="Roboto" font-size="13px" font-style="normal" font-weight="normal" text-decoration="none" x="373" y="210.5">#name: String</text></g></g><g transform="translate(-182,-158) scale(1,1)"><g><path fill="none" stroke="none"/><text fill="#000000" stroke="none" font-family="Roboto" font-size="13px" font-style="normal" font-weight="normal" text-decoration="none" x="373" y="225.5">#dbtype: String</text></g></g><g transform="translate(-182,-158) scale(1,1)"><path fill="none" stroke="#000000" d="M 283 204 L 367 204" stroke-miterlimit="10"/></g><g transform="translate(-182,-158) scale(1,1)"><path fill="#FFFFFF" stroke="none" d="M 293.16267485762415 199.790482243984 L 283 204 L 293.16267485762415 208.209517756016 L 305 204"/></g><g transform="translate(-182,-158) scale(1,1)"><path fill="none" stroke="#000000" d="M 293.16267485762415 199.790482243984 L 283 204 L 293.16267485762415 208.209517756016 L 305 204 L 293.16267485762415 199.790482243984" stroke-miterlimit="10"/></g><g transform="translate(-182,-158) scale(1,1)"><g><path fill="none" stroke="none"/><text fill="#000000" stroke="none" font-family="Roboto" font-size="20px" font-style="normal" font-weight="normal" text-decoration="none" x="286.5" y="194.5">*</text></g></g><g transform="translate(-182,-158) scale(1,1)"><g><path fill="none" stroke="none"/><text fill="#000000" stroke="none" font-family="Roboto" font-size="20px" font-style="normal" font-weight="normal" text-decoration="none" x="334.5" y="234.5">1..*</text></g></g><g transform="translate(-182,-158) scale(1,1)"><rect fill="#C0C0C0" stroke="none" x="375" y="447" width="94.16015625" height="150" opacity="0.2"/></g><g transform="translate(-182,-158) scale(1,1)"><rect fill="#ffffff" stroke="none" x="368" y="440" width="94.16015625" height="150"/></g><g transform="translate(-182,-158) scale(1,1)"><path fill="none" stroke="#000000" d="M 368 440 L 462.16015625 440 L 462.16015625 590 L 368 590 L 368 440 Z Z" stroke-miterlimit="10"/></g><g transform="translate(-182,-158) scale(1,1)"><path fill="none" stroke="#000000" d="M 368 478 L 462.16015625 478" stroke-miterlimit="10"/></g><g transform="translate(-182,-158) scale(1,1)"><g><path fill="none" stroke="none"/><text fill="#000000" stroke="none" font-family="Roboto" font-size="13px" font-style="normal" font-weight="normal" text-decoration="none" x="372.5" y="457.5">«enumeration»</text></g></g><g transform="translate(-182,-158) scale(1,1)"><g><path fill="none" stroke="none"/><text fill="#000000" stroke="none" font-family="Roboto" font-size="13px" font-style="normal" font-weight="bold" text-decoration="none" x="375.473876953125" y="472.5">DBLockTypes</text></g></g><g transform="translate(-182,-158) scale(1,1)"><g><path fill="none" stroke="none"/><text fill="#000000" stroke="none" font-family="Roboto" font-size="13px" font-style="normal" font-weight="normal" text-decoration="none" x="373" y="495.5">XE</text></g></g><g transform="translate(-182,-158) scale(1,1)"><g><path fill="none" stroke="none"/><text fill="#000000" stroke="none" font-family="Roboto" font-size="13px" font-style="normal" font-weight="normal" text-decoration="none" x="373" y="510.5">X</text></g></g><g transform="translate(-182,-158) scale(1,1)"><g><path fill="none" stroke="none"/><text fill="#000000" stroke="none" font-family="Roboto" font-size="13px" font-style="normal" font-weight="normal" text-decoration="none" x="373" y="525.5">SE</text></g></g><g transform="translate(-182,-158) scale(1,1)"><g><path fill="none" stroke="none"/><text fill="#000000" stroke="none" font-family="Roboto" font-size="13px" font-style="normal" font-weight="normal" text-decoration="none" x="373" y="540.5">S</text></g></g><g transform="translate(-182,-158) scale(1,1)"><g><path fill="none" stroke="none"/><text fill="#000000" stroke="none" font-family="Roboto" font-size="13px" font-style="normal" font-weight="normal" text-decoration="none" x="373" y="555.5">UE</text></g></g><g transform="translate(-182,-158) scale(1,1)"><g><path fill="none" stroke="none"/><text fill="#000000" stroke="none" font-family="Roboto" font-size="13px" font-style="normal" font-weight="normal" text-decoration="none" x="373" y="570.5">U</text></g></g><g transform="translate(-182,-158) scale(1,1)"><g><path fill="none" stroke="none"/><text fill="#000000" stroke="none" font-family="Roboto" font-size="13px" font-style="normal" font-weight="normal" text-decoration="none" x="373" y="585.5">None</text></g></g><g transform="translate(-182,-158) scale(1,1)"><rect fill="#C0C0C0" stroke="none" x="575" y="487" width="169.2783203125" height="105" opacity="0.2"/></g><g transform="translate(-182,-158) scale(1,1)"><rect fill="#ffffff" stroke="none" x="568" y="480" width="169.2783203125" height="105"/></g><g transform="translate(-182,-158) scale(1,1)"><path fill="none" stroke="#000000" d="M 568 480 L 737.2783203125 480 L 737.2783203125 585 L 568 585 L 568 480 Z Z" stroke-miterlimit="10"/></g><g transform="translate(-182,-158) scale(1,1)"><path fill="none" stroke="#000000" d="M 568 518 L 737.2783203125 518" stroke-miterlimit="10"/></g><g transform="translate(-182,-158) scale(1,1)"><g><path fill="none" stroke="none"/><text fill="#000000" stroke="none" font-family="Roboto" font-size="13px" font-style="normal" font-weight="normal" text-decoration="none" x="610.05908203125" y="497.5">«enumeration»</text></g></g><g transform="translate(-182,-158) scale(1,1)"><g><path fill="none" stroke="none"/><text fill="#000000" stroke="none" font-family="Roboto" font-size="13px" font-style="normal" font-weight="bold" text-decoration="none" x="573.81396484375" y="512.5">DBTransactionActionTypes</text></g></g><g transform="translate(-182,-158) scale(1,1)"><g><path fill="none" stroke="none"/><text fill="#000000" stroke="none" font-family="Roboto" font-size="13px" font-style="normal" font-weight="normal" text-decoration="none" x="573" y="535.5">find</text></g></g><g transform="translate(-182,-158) scale(1,1)"><g><path fill="none" stroke="none"/><text fill="#000000" stroke="none" font-family="Roboto" font-size="13px" font-style="normal" font-weight="normal" text-decoration="none" x="573" y="550.5">upd</text></g></g><g transform="translate(-182,-158) scale(1,1)"><g><path fill="none" stroke="none"/><text fill="#000000" stroke="none" font-family="Roboto" font-size="13px" font-style="normal" font-weight="normal" text-decoration="none" x="573" y="565.5">rollback</text></g></g><g transform="translate(-182,-158) scale(1,1)"><g><path fill="none" stroke="none"/><text fill="#000000" stroke="none" font-family="Roboto" font-size="13px" font-style="normal" font-weight="normal" text-decoration="none" x="573" y="580.5">commit</text></g></g><g transform="translate(-182,-158) scale(1,1)"><rect fill="#C0C0C0" stroke="none" x="535" y="319" width="208.64013671875" height="85" opacity="0.2"/></g><g transform="translate(-182,-158) scale(1,1)"><rect fill="#ffffff" stroke="none" x="528" y="312" width="208.64013671875" height="85"/></g><g transform="translate(-182,-158) scale(1,1)"><path fill="none" stroke="#000000" d="M 528 312 L 736.64013671875 312 L 736.64013671875 397 L 528 397 L 528 312 Z Z" stroke-miterlimit="10"/></g><g transform="translate(-182,-158) scale(1,1)"><path fill="none" stroke="#000000" d="M 528 337 L 736.64013671875 337" stroke-miterlimit="10"/></g><g transform="translate(-182,-158) scale(1,1)"><path fill="none" stroke="#000000" d="M 528 375 L 736.64013671875 375" stroke-miterlimit="10"/></g><g transform="translate(-182,-158) scale(1,1)"><g><path fill="none" stroke="none"/><text fill="#000000" stroke="none" font-family="Roboto" font-size="13px" font-style="normal" font-weight="bold" text-decoration="none" x="570.890625" y="331.5">DBTransactionAction</text></g></g><g transform="translate(-182,-158) scale(1,1)"><g><path fill="none" stroke="none"/><text fill="#000000" stroke="none" font-family="Roboto" font-size="13px" font-style="normal" font-weight="normal" text-decoration="none" x="533" y="354.5">#source: String</text></g></g><g transform="translate(-182,-158) scale(1,1)"><g><path fill="none" stroke="none"/><text fill="#000000" stroke="none" font-family="Roboto" font-size="13px" font-style="normal" font-weight="normal" text-decoration="none" x="533" y="369.5">#index: Integer</text></g></g><g transform="translate(-182,-158) scale(1,1)"><g><path fill="none" stroke="none"/><text fill="#000000" stroke="none" font-family="Roboto" font-size="13px" font-style="normal" font-weight="normal" text-decoration="none" x="533" y="392.5">+complete(): DBTransactionAction</text></g></g><g transform="translate(-182,-158) scale(1,1)"><rect fill="#C0C0C0" stroke="none" x="831" y="335" width="95.68359375" height="44" opacity="0.2"/></g><g transform="translate(-182,-158) scale(1,1)"><rect fill="#ffffff" stroke="none" x="824" y="328" width="95.68359375" height="44"/></g><g transform="translate(-182,-158) scale(1,1)"><path fill="none" stroke="#000000" d="M 824 328 L 919.68359375 328 L 919.68359375 372 L 824 372 L 824 328 Z Z" stroke-miterlimit="10"/></g><g transform="translate(-182,-158) scale(1,1)"><path fill="none" stroke="#000000" d="M 824 353 L 919.68359375 353" stroke-miterlimit="10"/></g><g transform="translate(-182,-158) scale(1,1)"><path fill="none" stroke="#000000" d="M 824 363 L 919.68359375 363" stroke-miterlimit="10"/></g><g transform="translate(-182,-158) scale(1,1)"><g><path fill="none" stroke="none"/><text fill="#000000" stroke="none" font-family="Roboto" font-size="13px" font-style="normal" font-weight="bold" text-decoration="none" x="829.049072265625" y="347.5">DBTransaction</text></g></g><g transform="translate(-182,-158) scale(1,1)"><path fill="none" stroke="#000000" d="M 738 352 L 823 351" stroke-miterlimit="10"/></g><g transform="translate(-182,-158) scale(1,1)"><path fill="#FFFFFF" stroke="none" d="M 748.112451319911 347.67122092242744 L 738 352 L 748.2114919427379 356.0896738627179 L 759.9984776666764 351.741194380392"/></g><g transform="translate(-182,-158) scale(1,1)"><path fill="none" stroke="#000000" d="M 748.112451319911 347.67122092242744 L 738 352 L 748.2114919427379 356.0896738627179 L 759.9984776666764 351.741194380392 L 748.112451319911 347.67122092242744" stroke-miterlimit="10"/></g><g transform="translate(-182,-158) scale(1,1)"><g><path fill="none" stroke="none"/><text fill="#000000" stroke="none" font-family="Roboto" font-size="20px" font-style="normal" font-weight="normal" text-decoration="none" x="742.5" y="377.5">*</text></g></g><g transform="translate(-182,-158) scale(1,1)"><g><path fill="none" stroke="none"/><text fill="#000000" stroke="none" font-family="Roboto" font-size="20px" font-style="normal" font-weight="normal" text-decoration="none" x="806.5" y="378.5">*</text></g></g><g transform="translate(-182,-158) scale(1,1)"><rect fill="#C0C0C0" stroke="none" x="271" y="327" width="118.7255859375" height="70" opacity="0.2"/></g><g transform="translate(-182,-158) scale(1,1)"><rect fill="#ffffff" stroke="none" x="264" y="320" width="118.7255859375" height="70"/></g><g transform="translate(-182,-158) scale(1,1)"><path fill="none" stroke="#000000" d="M 264 320 L 382.7255859375 320 L 382.7255859375 390 L 264 390 L 264 320 Z Z" stroke-miterlimit="10"/></g><g transform="translate(-182,-158) scale(1,1)"><path fill="none" stroke="#000000" d="M 264 358 L 382.7255859375 358" stroke-miterlimit="10"/></g><g transform="translate(-182,-158) scale(1,1)"><path fill="none" stroke="#000000" d="M 264 368 L 382.7255859375 368" stroke-miterlimit="10"/></g><g transform="translate(-182,-158) scale(1,1)"><g><path fill="none" stroke="none"/><text fill="#000000" stroke="none" font-family="Roboto" font-size="13px" font-style="normal" font-weight="normal" text-decoration="none" x="291.697509765625" y="337.5">«interface»</text></g></g><g transform="translate(-182,-158) scale(1,1)"><g><path fill="none" stroke="none"/><text fill="#000000" stroke="none" font-family="Roboto" font-size="13px" font-style="normal" font-weight="bold" text-decoration="none" x="292.700439453125" y="352.5">DBGranule</text></g></g><g transform="translate(-182,-158) scale(1,1)"><g><path fill="none" stroke="none"/><text fill="#000000" stroke="none" font-family="Roboto" font-size="13px" font-style="normal" font-weight="normal" text-decoration="none" x="269" y="385.5">+getName(): String</text></g></g><g transform="translate(-182,-158) scale(1,1)"><path fill="none" stroke="#000000" d="M 384 355 L 527 354" stroke-miterlimit="10"/></g><g transform="translate(-182,-158) scale(1,1)"><path fill="#FFFFFF" stroke="none" d="M 516.867010088932 358.2804807512935 L 527 354 L 516.8081371542108 349.86165108616706 L 505.0005379038864 354.1538423922805"/></g><g transform="translate(-182,-158) scale(1,1)"><path fill="none" stroke="#000000" d="M 516.867010088932 358.2804807512935 L 527 354 L 516.8081371542108 349.86165108616706 L 505.0005379038864 354.1538423922805 L 516.867010088932 358.2804807512935" stroke-miterlimit="10"/></g><g transform="translate(-182,-158) scale(1,1)"><g><path fill="none" stroke="none"/><text fill="#000000" stroke="none" font-family="Roboto" font-size="15px" font-style="normal" font-weight="normal" text-decoration="none" x="388.5" y="346.5">#cible</text></g></g><g transform="translate(-182,-158) scale(1,1)"><g><path fill="none" stroke="none"/><text fill="#000000" stroke="none" font-family="Roboto" font-size="20px" font-style="normal" font-weight="normal" text-decoration="none" x="399.5" y="376.5">1</text></g></g><g transform="translate(-182,-158) scale(1,1)"><g><path fill="none" stroke="none"/><text fill="#000000" stroke="none" font-family="Roboto" font-size="20px" font-style="normal" font-weight="normal" text-decoration="none" x="500.5" y="375.5">*</text></g></g><g transform="translate(-182,-158) scale(1,1)"><path fill="none" stroke="#000000" d="M 236 233 L 236 287 L 323 287 L 323 320" stroke-miterlimit="10"/></g><g transform="translate(-182,-158) scale(1,1)"><path fill="#FFFFFF" stroke="none" d="M 314.580964487968 299.6746502847517 L 323 320 L 331.419035512032 299.6746502847517"/></g><g transform="translate(-182,-158) scale(1,1)"><path fill="none" stroke="#000000" d="M 314.580964487968 299.6746502847517 L 323 320 L 331.419035512032 299.6746502847517 L 314.580964487968 299.6746502847517" stroke-miterlimit="10"/></g><g transform="translate(-182,-158) scale(1,1)"><path fill="none" stroke="#000000" d="M 416 240 L 416 287 L 323 287 L 323 320" stroke-miterlimit="10"/></g><g transform="translate(-182,-158) scale(1,1)"><path fill="#FFFFFF" stroke="none" d="M 314.580964487968 299.6746502847517 L 323 320 L 331.419035512032 299.6746502847517"/></g><g transform="translate(-182,-158) scale(1,1)"><path fill="none" stroke="#000000" d="M 314.580964487968 299.6746502847517 L 323 320 L 331.419035512032 299.6746502847517 L 314.580964487968 299.6746502847517" stroke-miterlimit="10"/></g><g transform="translate(-182,-158) scale(1,1)"><path fill="none" stroke="#000000" d="M 463 479 L 573 398" stroke-miterlimit="10"/></g><g transform="translate(-182,-158) scale(1,1)"><path fill="#FFFFFF" stroke="none" d="M 567.3126404144822 407.4156221751416 L 573 398 L 562.320579180901 400.6362797591671 L 555.2847245461444 411.0448846523846"/></g><g transform="translate(-182,-158) scale(1,1)"><path fill="none" stroke="#000000" d="M 567.3126404144822 407.4156221751416 L 573 398 L 562.320579180901 400.6362797591671 L 555.2847245461444 411.0448846523846 L 567.3126404144822 407.4156221751416" stroke-miterlimit="10"/></g><g transform="translate(-182,-158) scale(1,1)"><g><path fill="none" stroke="none"/><text fill="#000000" stroke="none" font-family="Roboto" font-size="20px" font-style="normal" font-weight="normal" text-decoration="none" x="471.5" y="489.5">1</text></g></g><g transform="translate(-182,-158) scale(1,1)"><g><path fill="none" stroke="none"/><text fill="#000000" stroke="none" font-family="Roboto" font-size="20px" font-style="normal" font-weight="normal" text-decoration="none" x="549.06396484375" y="434.5">*</text></g></g><g transform="translate(-182,-158) scale(1,1)"><path fill="none" stroke="#000000" d="M 646 479 L 637 398" stroke-miterlimit="10"/></g><g transform="translate(-182,-158) scale(1,1)"><path fill="#FFFFFF" stroke="none" d="M 642.3060509220539 407.63565377193316 L 637 398 L 633.9385084650058 408.5653807116052 L 639.4294935736466 419.8654421628196"/></g><g transform="translate(-182,-158) scale(1,1)"><path fill="none" stroke="#000000" d="M 642.3060509220539 407.63565377193316 L 637 398 L 633.9385084650058 408.5653807116052 L 639.4294935736466 419.8654421628196 L 642.3060509220539 407.63565377193316" stroke-miterlimit="10"/></g><g transform="translate(-182,-158) scale(1,1)"><g><path fill="none" stroke="none"/><text fill="#000000" stroke="none" font-family="Roboto" font-size="20px" font-style="normal" font-weight="normal" text-decoration="none" x="647.5" y="474.5">1</text></g></g><g transform="translate(-182,-158) scale(1,1)"><g><path fill="none" stroke="none"/><text fill="#000000" stroke="none" font-family="Roboto" font-size="20px" font-style="normal" font-weight="normal" text-decoration="none" x="645.5" y="433.5">*</text></g></g></g></svg>