<svg version="1.1" xmlns="http://www.w3.org/2000/svg" xmlns:xlink="http://www.w3.org/1999/xlink" width="731.68359375" height="430"><defs/><g><g transform="translate(-334,-117) scale(1,1)"><rect fill="#C0C0C0" stroke="none" x="351" y="143" width="89.87548828125" height="57" opacity="0.2"/></g><g transform="translate(-334,-117) scale(1,1)"><rect fill="#ffffff" stroke="none" x="344" y="136" width="89.87548828125" height="57"/></g><g transform="translate(-334,-117) scale(1,1)"><path fill="none" stroke="#000000" d="M 344 136 L 433.87548828125 136 L 433.87548828125 193 L 344 193 L 344 136 Z Z" stroke-miterlimit="10"/></g><g transform="translate(-334,-117) scale(1,1)"><path fill="none" stroke="#000000" d="M 344 161 L 433.87548828125 161" stroke-miterlimit="10"/></g><g transform="translate(-334,-117) scale(1,1)"><path fill="none" stroke="#000000" d="M 344 184 L 433.87548828125 184" stroke-miterlimit="10"/></g><g transform="translate(-334,-117) scale(1,1)"><g><path fill="none" stroke="none"/><text fill="#000000" stroke="none" font-family="Roboto" font-size="13px" font-style="normal" font-weight="bold" text-decoration="none" x="362.56005859375" y="155.5">DBModel</text></g></g><g transform="translate(-334,-117) scale(1,1)"><g><path fill="none" stroke="none"/><text fill="#000000" stroke="none" font-family="Roboto" font-size="13px" font-style="normal" font-weight="normal" text-decoration="none" x="349" y="178.5">#name: String</text></g></g><g transform="translate(-334,-117) scale(1,1)"><rect fill="#C0C0C0" stroke="none" x="527" y="135" width="96.55322265625" height="72" opacity="0.2"/></g><g transform="translate(-334,-117) scale(1,1)"><rect fill="#ffffff" stroke="none" x="520" y="128" width="96.55322265625" height="72"/></g><g transform="translate(-334,-117) scale(1,1)"><path fill="none" stroke="#000000" d="M 520 128 L 616.55322265625 128 L 616.55322265625 200 L 520 200 L 520 128 Z Z" stroke-miterlimit="10"/></g><g transform="translate(-334,-117) scale(1,1)"><path fill="none" stroke="#000000" d="M 520 153 L 616.55322265625 153" stroke-miterlimit="10"/></g><g transform="translate(-334,-117) scale(1,1)"><path fill="none" stroke="#000000" d="M 520 191 L 616.55322265625 191" stroke-miterlimit="10"/></g><g transform="translate(-334,-117) scale(1,1)"><g><path fill="none" stroke="none"/><text fill="#000000" stroke="none" font-family="Roboto" font-size="13px" font-style="normal" font-weight="bold" text-decoration="none" x="534.906982421875" y="147.5">DBAttribute</text></g></g><g transform="translate(-334,-117) scale(1,1)"><g><path fill="none" stroke="none"/><text fill="#000000" stroke="none" font-family="Roboto" font-size="13px" font-style="normal" font-weight="normal" text-decoration="none" x="525" y="170.5">#name: String</text></g></g><g transform="translate(-334,-117) scale(1,1)"><g><path fill="none" stroke="none"/><text fill="#000000" stroke="none" font-family="Roboto" font-size="13px" font-style="normal" font-weight="normal" text-decoration="none" x="525" y="185.5">#dbtype: String</text></g></g><g transform="translate(-334,-117) scale(1,1)"><path fill="none" stroke="#000000" d="M 435 164 L 519 164" stroke-miterlimit="10"/></g><g transform="translate(-334,-117) scale(1,1)"><path fill="#FFFFFF" stroke="none" d="M 445.16267485762415 159.790482243984 L 435 164 L 445.16267485762415 168.209517756016 L 457 164"/></g><g transform="translate(-334,-117) scale(1,1)"><path fill="none" stroke="#000000" d="M 445.16267485762415 159.790482243984 L 435 164 L 445.16267485762415 168.209517756016 L 457 164 L 445.16267485762415 159.790482243984" stroke-miterlimit="10"/></g><g transform="translate(-334,-117) scale(1,1)"><g><path fill="none" stroke="none"/><text fill="#000000" stroke="none" font-family="Roboto" font-size="20px" font-style="normal" font-weight="normal" text-decoration="none" x="438.5" y="146.5">*</text></g></g><g transform="translate(-334,-117) scale(1,1)"><g><path fill="none" stroke="none"/><text fill="#000000" stroke="none" font-family="Roboto" font-size="20px" font-style="normal" font-weight="normal" text-decoration="none" x="486.5" y="186.5">1..*</text></g></g><g transform="translate(-334,-117) scale(1,1)"><rect fill="#C0C0C0" stroke="none" x="567" y="391" width="94.16015625" height="150" opacity="0.2"/></g><g transform="translate(-334,-117) scale(1,1)"><rect fill="#ffffff" stroke="none" x="560" y="384" width="94.16015625" height="150"/></g><g transform="translate(-334,-117) scale(1,1)"><path fill="none" stroke="#000000" d="M 560 384 L 654.16015625 384 L 654.16015625 534 L 560 534 L 560 384 Z Z" stroke-miterlimit="10"/></g><g transform="translate(-334,-117) scale(1,1)"><path fill="none" stroke="#000000" d="M 560 422 L 654.16015625 422" stroke-miterlimit="10"/></g><g transform="translate(-334,-117) scale(1,1)"><g><path fill="none" stroke="none"/><text fill="#000000" stroke="none" font-family="Roboto" font-size="13px" font-style="normal" font-weight="normal" text-decoration="none" x="564.5" y="401.5">«enumeration»</text></g></g><g transform="translate(-334,-117) scale(1,1)"><g><path fill="none" stroke="none"/><text fill="#000000" stroke="none" font-family="Roboto" font-size="13px" font-style="normal" font-weight="bold" text-decoration="none" x="567.473876953125" y="416.5">DBLockTypes</text></g></g><g transform="translate(-334,-117) scale(1,1)"><g><path fill="none" stroke="none"/><text fill="#000000" stroke="none" font-family="Roboto" font-size="13px" font-style="normal" font-weight="normal" text-decoration="none" x="565" y="439.5">XE</text></g></g><g transform="translate(-334,-117) scale(1,1)"><g><path fill="none" stroke="none"/><text fill="#000000" stroke="none" font-family="Roboto" font-size="13px" font-style="normal" font-weight="normal" text-decoration="none" x="565" y="454.5">X</text></g></g><g transform="translate(-334,-117) scale(1,1)"><g><path fill="none" stroke="none"/><text fill="#000000" stroke="none" font-family="Roboto" font-size="13px" font-style="normal" font-weight="normal" text-decoration="none" x="565" y="469.5">SE</text></g></g><g transform="translate(-334,-117) scale(1,1)"><g><path fill="none" stroke="none"/><text fill="#000000" stroke="none" font-family="Roboto" font-size="13px" font-style="normal" font-weight="normal" text-decoration="none" x="565" y="484.5">S</text></g></g><g transform="translate(-334,-117) scale(1,1)"><g><path fill="none" stroke="none"/><text fill="#000000" stroke="none" font-family="Roboto" font-size="13px" font-style="normal" font-weight="normal" text-decoration="none" x="565" y="499.5">UE</text></g></g><g transform="translate(-334,-117) scale(1,1)"><g><path fill="none" stroke="none"/><text fill="#000000" stroke="none" font-family="Roboto" font-size="13px" font-style="normal" font-weight="normal" text-decoration="none" x="565" y="514.5">U</text></g></g><g transform="translate(-334,-117) scale(1,1)"><g><path fill="none" stroke="none"/><text fill="#000000" stroke="none" font-family="Roboto" font-size="13px" font-style="normal" font-weight="normal" text-decoration="none" x="565" y="529.5">None</text></g></g><g transform="translate(-334,-117) scale(1,1)"><rect fill="#C0C0C0" stroke="none" x="807" y="439" width="169.2783203125" height="105" opacity="0.2"/></g><g transform="translate(-334,-117) scale(1,1)"><rect fill="#ffffff" stroke="none" x="800" y="432" width="169.2783203125" height="105"/></g><g transform="translate(-334,-117) scale(1,1)"><path fill="none" stroke="#000000" d="M 800 432 L 969.2783203125 432 L 969.2783203125 537 L 800 537 L 800 432 Z Z" stroke-miterlimit="10"/></g><g transform="translate(-334,-117) scale(1,1)"><path fill="none" stroke="#000000" d="M 800 470 L 969.2783203125 470" stroke-miterlimit="10"/></g><g transform="translate(-334,-117) scale(1,1)"><g><path fill="none" stroke="none"/><text fill="#000000" stroke="none" font-family="Roboto" font-size="13px" font-style="normal" font-weight="normal" text-decoration="none" x="842.05908203125" y="449.5">«enumeration»</text></g></g><g transform="translate(-334,-117) scale(1,1)"><g><path fill="none" stroke="none"/><text fill="#000000" stroke="none" font-family="Roboto" font-size="13px" font-style="normal" font-weight="bold" text-decoration="none" x="805.81396484375" y="464.5">DBTransactionActionTypes</text></g></g><g transform="translate(-334,-117) scale(1,1)"><g><path fill="none" stroke="none"/><text fill="#000000" stroke="none" font-family="Roboto" font-size="13px" font-style="normal" font-weight="normal" text-decoration="none" x="805" y="487.5">find</text></g></g><g transform="translate(-334,-117) scale(1,1)"><g><path fill="none" stroke="none"/><text fill="#000000" stroke="none" font-family="Roboto" font-size="13px" font-style="normal" font-weight="normal" text-decoration="none" x="805" y="502.5">upd</text></g></g><g transform="translate(-334,-117) scale(1,1)"><g><path fill="none" stroke="none"/><text fill="#000000" stroke="none" font-family="Roboto" font-size="13px" font-style="normal" font-weight="normal" text-decoration="none" x="805" y="517.5">rollback</text></g></g><g transform="translate(-334,-117) scale(1,1)"><g><path fill="none" stroke="none"/><text fill="#000000" stroke="none" font-family="Roboto" font-size="13px" font-style="normal" font-weight="normal" text-decoration="none" x="805" y="532.5">commit</text></g></g><g transform="translate(-334,-117) scale(1,1)"><rect fill="#C0C0C0" stroke="none" x="679" y="271" width="208.64013671875" height="85" opacity="0.2"/></g><g transform="translate(-334,-117) scale(1,1)"><rect fill="#ffffff" stroke="none" x="672" y="264" width="208.64013671875" height="85"/></g><g transform="translate(-334,-117) scale(1,1)"><path fill="none" stroke="#000000" d="M 672 264 L 880.64013671875 264 L 880.64013671875 349 L 672 349 L 672 264 Z Z" stroke-miterlimit="10"/></g><g transform="translate(-334,-117) scale(1,1)"><path fill="none" stroke="#000000" d="M 672 289 L 880.64013671875 289" stroke-miterlimit="10"/></g><g transform="translate(-334,-117) scale(1,1)"><path fill="none" stroke="#000000" d="M 672 327 L 880.64013671875 327" stroke-miterlimit="10"/></g><g transform="translate(-334,-117) scale(1,1)"><g><path fill="none" stroke="none"/><text fill="#000000" stroke="none" font-family="Roboto" font-size="13px" font-style="normal" font-weight="bold" text-decoration="none" x="714.890625" y="283.5">DBTransactionAction</text></g></g><g transform="translate(-334,-117) scale(1,1)"><g><path fill="none" stroke="none"/><text fill="#000000" stroke="none" font-family="Roboto" font-size="13px" font-style="normal" font-weight="normal" text-decoration="none" x="677" y="306.5">#source: String</text></g></g><g transform="translate(-334,-117) scale(1,1)"><g><path fill="none" stroke="none"/><text fill="#000000" stroke="none" font-family="Roboto" font-size="13px" font-style="normal" font-weight="normal" text-decoration="none" x="677" y="321.5">#index: Integer</text></g></g><g transform="translate(-334,-117) scale(1,1)"><g><path fill="none" stroke="none"/><text fill="#000000" stroke="none" font-family="Roboto" font-size="13px" font-style="normal" font-weight="normal" text-decoration="none" x="677" y="344.5">+complete(): DBTransactionAction</text></g></g><g transform="translate(-334,-117) scale(1,1)"><rect fill="#C0C0C0" stroke="none" x="967" y="287" width="95.68359375" height="44" opacity="0.2"/></g><g transform="translate(-334,-117) scale(1,1)"><rect fill="#ffffff" stroke="none" x="960" y="280" width="95.68359375" height="44"/></g><g transform="translate(-334,-117) scale(1,1)"><path fill="none" stroke="#000000" d="M 960 280 L 1055.68359375 280 L 1055.68359375 324 L 960 324 L 960 280 Z Z" stroke-miterlimit="10"/></g><g transform="translate(-334,-117) scale(1,1)"><path fill="none" stroke="#000000" d="M 960 305 L 1055.68359375 305" stroke-miterlimit="10"/></g><g transform="translate(-334,-117) scale(1,1)"><path fill="none" stroke="#000000" d="M 960 315 L 1055.68359375 315" stroke-miterlimit="10"/></g><g transform="translate(-334,-117) scale(1,1)"><g><path fill="none" stroke="none"/><text fill="#000000" stroke="none" font-family="Roboto" font-size="13px" font-style="normal" font-weight="bold" text-decoration="none" x="965.049072265625" y="299.5">DBTransaction</text></g></g><g transform="translate(-334,-117) scale(1,1)"><path fill="none" stroke="#000000" d="M 882 304 L 959 303" stroke-miterlimit="10"/></g><g transform="translate(-334,-117) scale(1,1)"><path fill="#FFFFFF" stroke="none" d="M 892.1071534828754 299.6588655314999 L 882 304 L 892.2164823869535 308.0771911455153 L 903.9981449470855 303.714309805882"/></g><g transform="translate(-334,-117) scale(1,1)"><path fill="none" stroke="#000000" d="M 892.1071534828754 299.6588655314999 L 882 304 L 892.2164823869535 308.0771911455153 L 903.9981449470855 303.714309805882 L 892.1071534828754 299.6588655314999" stroke-miterlimit="10"/></g><g transform="translate(-334,-117) scale(1,1)"><g><path fill="none" stroke="none"/><text fill="#000000" stroke="none" font-family="Roboto" font-size="20px" font-style="normal" font-weight="normal" text-decoration="none" x="886.5" y="329.5">*</text></g></g><g transform="translate(-334,-117) scale(1,1)"><g><path fill="none" stroke="none"/><text fill="#000000" stroke="none" font-family="Roboto" font-size="20px" font-style="normal" font-weight="normal" text-decoration="none" x="942.5" y="329.5">*</text></g></g><g transform="translate(-334,-117) scale(1,1)"><rect fill="#C0C0C0" stroke="none" x="439" y="279" width="118.7255859375" height="70" opacity="0.2"/></g><g transform="translate(-334,-117) scale(1,1)"><rect fill="#ffffff" stroke="none" x="432" y="272" width="118.7255859375" height="70"/></g><g transform="translate(-334,-117) scale(1,1)"><path fill="none" stroke="#000000" d="M 432 272 L 550.7255859375 272 L 550.7255859375 342 L 432 342 L 432 272 Z Z" stroke-miterlimit="10"/></g><g transform="translate(-334,-117) scale(1,1)"><path fill="none" stroke="#000000" d="M 432 310 L 550.7255859375 310" stroke-miterlimit="10"/></g><g transform="translate(-334,-117) scale(1,1)"><path fill="none" stroke="#000000" d="M 432 320 L 550.7255859375 320" stroke-miterlimit="10"/></g><g transform="translate(-334,-117) scale(1,1)"><g><path fill="none" stroke="none"/><text fill="#000000" stroke="none" font-family="Roboto" font-size="13px" font-style="normal" font-weight="normal" text-decoration="none" x="459.697509765625" y="289.5">«interface»</text></g></g><g transform="translate(-334,-117) scale(1,1)"><g><path fill="none" stroke="none"/><text fill="#000000" stroke="none" font-family="Roboto" font-size="13px" font-style="normal" font-weight="bold" text-decoration="none" x="460.700439453125" y="304.5">DBGranule</text></g></g><g transform="translate(-334,-117) scale(1,1)"><g><path fill="none" stroke="none"/><text fill="#000000" stroke="none" font-family="Roboto" font-size="13px" font-style="normal" font-weight="normal" text-decoration="none" x="437" y="337.5">+getName(): String</text></g></g><g transform="translate(-334,-117) scale(1,1)"><path fill="none" stroke="#000000" d="M 552 307 L 671 306" stroke-miterlimit="10"/></g><g transform="translate(-334,-117) scale(1,1)"><path fill="#FFFFFF" stroke="none" d="M 660.8730567994041 310.2947667470895 L 671 306 L 660.8023110996862 301.8760284806492 L 649.000776740163 306.18486742235154"/></g><g transform="translate(-334,-117) scale(1,1)"><path fill="none" stroke="#000000" d="M 660.8730567994041 310.2947667470895 L 671 306 L 660.8023110996862 301.8760284806492 L 649.000776740163 306.18486742235154 L 660.8730567994041 310.2947667470895" stroke-miterlimit="10"/></g><g transform="translate(-334,-117) scale(1,1)"><g><path fill="none" stroke="none"/><text fill="#000000" stroke="none" font-family="Roboto" font-size="15px" font-style="normal" font-weight="normal" text-decoration="none" x="553.5" y="294.5">#target of</text></g></g><g transform="translate(-334,-117) scale(1,1)"><g><path fill="none" stroke="none"/><text fill="#000000" stroke="none" font-family="Roboto" font-size="20px" font-style="normal" font-weight="normal" text-decoration="none" x="567.5" y="328.5">1</text></g></g><g transform="translate(-334,-117) scale(1,1)"><g><path fill="none" stroke="none"/><text fill="#000000" stroke="none" font-family="Roboto" font-size="20px" font-style="normal" font-weight="normal" text-decoration="none" x="644.5" y="327.5">*</text></g></g><g transform="translate(-334,-117) scale(1,1)"><path fill="none" stroke="#000000" d="M 388 193 L 388 243 L 491 243 L 491 272" stroke-miterlimit="10"/></g><g transform="translate(-334,-117) scale(1,1)"><path fill="#FFFFFF" stroke="none" d="M 482.580964487968 251.6746502847517 L 491 272 L 499.419035512032 251.6746502847517"/></g><g transform="translate(-334,-117) scale(1,1)"><path fill="none" stroke="#000000" d="M 482.580964487968 251.6746502847517 L 491 272 L 499.419035512032 251.6746502847517 L 482.580964487968 251.6746502847517" stroke-miterlimit="10"/></g><g transform="translate(-334,-117) scale(1,1)"><path fill="none" stroke="#000000" d="M 600 200 L 600 243 L 491 243 L 491 272" stroke-miterlimit="10"/></g><g transform="translate(-334,-117) scale(1,1)"><path fill="#FFFFFF" stroke="none" d="M 482.580964487968 251.6746502847517 L 491 272 L 499.419035512032 251.6746502847517"/></g><g transform="translate(-334,-117) scale(1,1)"><path fill="none" stroke="#000000" d="M 482.580964487968 251.6746502847517 L 491 272 L 499.419035512032 251.6746502847517 L 482.580964487968 251.6746502847517" stroke-miterlimit="10"/></g><g transform="translate(-334,-117) scale(1,1)"><path fill="none" stroke="#000000" d="M 655 415 L 727 350" stroke-miterlimit="10"/></g><g transform="translate(-334,-117) scale(1,1)"><path fill="#FFFFFF" stroke="none" d="M 722.277382107135 359.93463035235794 L 727 350 L 716.6357603722682 353.68544935373626 L 710.6701030927835 364.74226804123714"/></g><g transform="translate(-334,-117) scale(1,1)"><path fill="none" stroke="#000000" d="M 722.277382107135 359.93463035235794 L 727 350 L 716.6357603722682 353.68544935373626 L 710.6701030927835 364.74226804123714 L 722.277382107135 359.93463035235794" stroke-miterlimit="10"/></g><g transform="translate(-334,-117) scale(1,1)"><g><path fill="none" stroke="none"/><text fill="#000000" stroke="none" font-family="Roboto" font-size="20px" font-style="normal" font-weight="normal" text-decoration="none" x="655.5" y="433.5">1</text></g></g><g transform="translate(-334,-117) scale(1,1)"><g><path fill="none" stroke="none"/><text fill="#000000" stroke="none" font-family="Roboto" font-size="20px" font-style="normal" font-weight="normal" text-decoration="none" x="715.06396484375" y="382.5">*</text></g></g><g transform="translate(-334,-117) scale(1,1)"><path fill="none" stroke="#000000" d="M 852 431 L 803 350" stroke-miterlimit="10"/></g><g transform="translate(-334,-117) scale(1,1)"><path fill="#FFFFFF" stroke="none" d="M 811.8619535736415 356.51657723491576 L 803 350 L 804.6584315135475 360.8742634194171 L 814.3871827624458 368.82371028077773"/></g><g transform="translate(-334,-117) scale(1,1)"><path fill="none" stroke="#000000" d="M 811.8619535736415 356.51657723491576 L 803 350 L 804.6584315135475 360.8742634194171 L 814.3871827624458 368.82371028077773 L 811.8619535736415 356.51657723491576" stroke-miterlimit="10"/></g><g transform="translate(-334,-117) scale(1,1)"><g><path fill="none" stroke="none"/><text fill="#000000" stroke="none" font-family="Roboto" font-size="20px" font-style="normal" font-weight="normal" text-decoration="none" x="849.5" y="426.5">1</text></g></g><g transform="translate(-334,-117) scale(1,1)"><g><path fill="none" stroke="none"/><text fill="#000000" stroke="none" font-family="Roboto" font-size="20px" font-style="normal" font-weight="normal" text-decoration="none" x="822.5" y="375.5">*</text></g></g></g></svg>