<svg version="1.1" xmlns="http://www.w3.org/2000/svg" xmlns:xlink="http://www.w3.org/1999/xlink" width="946.05419921875" height="633"><defs/><g><g transform="translate(-230,-14) scale(1,1)"><rect fill="#C0C0C0" stroke="none" x="455" y="79" width="89.87548828125" height="57" opacity="0.2"/></g><g transform="translate(-230,-14) scale(1,1)"><rect fill="#ffffff" stroke="none" x="448" y="72" width="89.87548828125" height="57"/></g><g transform="translate(-230,-14) scale(1,1)"><path fill="none" stroke="#000000" d="M 448 72 L 537.87548828125 72 L 537.87548828125 129 L 448 129 L 448 72 Z Z" stroke-miterlimit="10"/></g><g transform="translate(-230,-14) scale(1,1)"><path fill="none" stroke="#000000" d="M 448 97 L 537.87548828125 97" stroke-miterlimit="10"/></g><g transform="translate(-230,-14) scale(1,1)"><path fill="none" stroke="#000000" d="M 448 120 L 537.87548828125 120" stroke-miterlimit="10"/></g><g transform="translate(-230,-14) scale(1,1)"><g><path fill="none" stroke="none"/><text fill="#000000" stroke="none" font-family="Roboto" font-size="13px" font-style="normal" font-weight="bold" text-decoration="none" x="466.56005859375" y="91.5">DBModel</text></g></g><g transform="translate(-230,-14) scale(1,1)"><g><path fill="none" stroke="none"/><text fill="#000000" stroke="none" font-family="Roboto" font-size="13px" font-style="normal" font-weight="normal" text-decoration="none" x="453" y="114.5">#name: String</text></g></g><g transform="translate(-230,-14) scale(1,1)"><rect fill="#C0C0C0" stroke="none" x="639" y="71" width="100.0634765625" height="72" opacity="0.2"/></g><g transform="translate(-230,-14) scale(1,1)"><rect fill="#ffffff" stroke="none" x="632" y="64" width="100.0634765625" height="72"/></g><g transform="translate(-230,-14) scale(1,1)"><path fill="none" stroke="#000000" d="M 632 64 L 732.0634765625 64 L 732.0634765625 136 L 632 136 L 632 64 Z Z" stroke-miterlimit="10"/></g><g transform="translate(-230,-14) scale(1,1)"><path fill="none" stroke="#000000" d="M 632 89 L 732.0634765625 89" stroke-miterlimit="10"/></g><g transform="translate(-230,-14) scale(1,1)"><path fill="none" stroke="#000000" d="M 632 127 L 732.0634765625 127" stroke-miterlimit="10"/></g><g transform="translate(-230,-14) scale(1,1)"><g><path fill="none" stroke="none"/><text fill="#000000" stroke="none" font-family="Roboto" font-size="13px" font-style="normal" font-weight="bold" text-decoration="none" x="648.662109375" y="83.5">DBAttribute</text></g></g><g transform="translate(-230,-14) scale(1,1)"><g><path fill="none" stroke="none"/><text fill="#000000" stroke="none" font-family="Roboto" font-size="13px" font-style="normal" font-weight="normal" text-decoration="none" x="637" y="106.5">#name: String</text></g></g><g transform="translate(-230,-14) scale(1,1)"><g><path fill="none" stroke="none"/><text fill="#000000" stroke="none" font-family="Roboto" font-size="13px" font-style="normal" font-weight="normal" text-decoration="none" x="637" y="121.5">#dbType: String</text></g></g><g transform="translate(-230,-14) scale(1,1)"><rect fill="#C0C0C0" stroke="none" x="519" y="199" width="146.87109375" height="70" opacity="0.2"/></g><g transform="translate(-230,-14) scale(1,1)"><rect fill="#ffffff" stroke="none" x="512" y="192" width="146.87109375" height="70"/></g><g transform="translate(-230,-14) scale(1,1)"><path fill="none" stroke="#000000" d="M 512 192 L 658.87109375 192 L 658.87109375 262 L 512 262 L 512 192 Z Z" stroke-miterlimit="10"/></g><g transform="translate(-230,-14) scale(1,1)"><path fill="none" stroke="#000000" d="M 512 230 L 658.87109375 230" stroke-miterlimit="10"/></g><g transform="translate(-230,-14) scale(1,1)"><path fill="none" stroke="#000000" d="M 512 240 L 658.87109375 240" stroke-miterlimit="10"/></g><g transform="translate(-230,-14) scale(1,1)"><g><path fill="none" stroke="none"/><text fill="#000000" stroke="none" font-family="Roboto" font-size="13px" font-style="normal" font-weight="normal" text-decoration="none" x="553.770263671875" y="209.5">«interface»</text></g></g><g transform="translate(-230,-14) scale(1,1)"><g><path fill="none" stroke="none"/><text fill="#000000" stroke="none" font-family="Roboto" font-size="13px" font-style="normal" font-weight="bold" text-decoration="none" x="554.773193359375" y="224.5">DBGranule</text></g></g><g transform="translate(-230,-14) scale(1,1)"><g><path fill="none" stroke="none"/><text fill="#000000" stroke="none" font-family="Roboto" font-size="13px" font-style="normal" font-weight="normal" text-decoration="none" x="517" y="257.5">#getName(): String</text></g></g><g transform="translate(-230,-14) scale(1,1)"><path fill="none" stroke="#000000" d="M 492 129 L 492 147 L 585 147 L 585 192" stroke-miterlimit="10"/></g><g transform="translate(-230,-14) scale(1,1)"><path fill="#FFFFFF" stroke="none" d="M 576.580964487968 171.6746502847517 L 585 192 L 593.419035512032 171.6746502847517"/></g><g transform="translate(-230,-14) scale(1,1)"><path fill="none" stroke="#000000" d="M 576.580964487968 171.6746502847517 L 585 192 L 593.419035512032 171.6746502847517 L 576.580964487968 171.6746502847517" stroke-miterlimit="10"/></g><g transform="translate(-230,-14) scale(1,1)"><path fill="none" stroke="#000000" d="M 682 136 L 682 147 L 585 147 L 585 192" stroke-miterlimit="10"/></g><g transform="translate(-230,-14) scale(1,1)"><path fill="#FFFFFF" stroke="none" d="M 576.580964487968 171.6746502847517 L 585 192 L 593.419035512032 171.6746502847517"/></g><g transform="translate(-230,-14) scale(1,1)"><path fill="none" stroke="#000000" d="M 576.580964487968 171.6746502847517 L 585 192 L 593.419035512032 171.6746502847517 L 576.580964487968 171.6746502847517" stroke-miterlimit="10"/></g><g transform="translate(-230,-14) scale(1,1)"><path fill="none" stroke="#000000" d="M 631 100 L 539 100" stroke-miterlimit="10"/></g><g transform="translate(-230,-14) scale(1,1)"><path fill="#FFFFFF" stroke="none" d="M 549.1626748576241 95.79048224398402 L 539 100 L 549.1626748576241 104.20951775601598 L 561 100"/></g><g transform="translate(-230,-14) scale(1,1)"><path fill="none" stroke="#000000" d="M 549.1626748576241 95.79048224398402 L 539 100 L 549.1626748576241 104.20951775601598 L 561 100 L 549.1626748576241 95.79048224398402" stroke-miterlimit="10"/></g><g transform="translate(-230,-14) scale(1,1)"><g><path fill="none" stroke="none"/><text fill="#000000" stroke="none" font-family="Roboto" font-size="15px" font-style="normal" font-weight="normal" text-decoration="none" x="597.5" y="94.5">1..*</text></g></g><g transform="translate(-230,-14) scale(1,1)"><g><path fill="none" stroke="none"/><text fill="#000000" stroke="none" font-family="Roboto" font-size="15px" font-style="normal" font-weight="normal" text-decoration="none" x="556.5" y="94.5">*</text></g></g><g transform="translate(-230,-14) scale(1,1)"><rect fill="#C0C0C0" stroke="none" x="487" y="343" width="215.9716796875" height="72" opacity="0.2"/></g><g transform="translate(-230,-14) scale(1,1)"><rect fill="#ffffff" stroke="none" x="480" y="336" width="215.9716796875" height="72"/></g><g transform="translate(-230,-14) scale(1,1)"><path fill="none" stroke="#000000" d="M 480 336 L 695.9716796875 336 L 695.9716796875 408 L 480 408 L 480 336 Z Z" stroke-miterlimit="10"/></g><g transform="translate(-230,-14) scale(1,1)"><path fill="none" stroke="#000000" d="M 480 361 L 695.9716796875 361" stroke-miterlimit="10"/></g><g transform="translate(-230,-14) scale(1,1)"><path fill="none" stroke="#000000" d="M 480 371 L 695.9716796875 371" stroke-miterlimit="10"/></g><g transform="translate(-230,-14) scale(1,1)"><g><path fill="none" stroke="none"/><text fill="#000000" stroke="none" font-family="Roboto" font-size="13px" font-style="normal" font-weight="bold" text-decoration="none" x="526.556396484375" y="355.5">DBTransactionAction</text></g></g><g transform="translate(-230,-14) scale(1,1)"><g><path fill="none" stroke="none"/><text fill="#000000" stroke="none" font-family="Roboto" font-size="13px" font-style="normal" font-weight="normal" text-decoration="none" x="485" y="388.5">+completed(): DBTransactionAction</text></g></g><g transform="translate(-230,-14) scale(1,1)"><g><path fill="none" stroke="none"/><text fill="#000000" stroke="none" font-family="Roboto" font-size="13px" font-style="normal" font-weight="normal" text-decoration="none" x="485" y="403.5">+willFree(): boolean</text></g></g><g transform="translate(-230,-14) scale(1,1)"><path fill="none" stroke="#000000" d="M 585 263 L 586 335" stroke-miterlimit="10"/></g><g transform="translate(-230,-14) scale(1,1)"><path fill="#FFFFFF" stroke="none" d="M 581.6497535457958 324.89676508302 L 586 335 L 590.0679771541168 324.7798453106822 L 585.6944739112033 313.0021216066398"/></g><g transform="translate(-230,-14) scale(1,1)"><path fill="none" stroke="#000000" d="M 581.6497535457958 324.89676508302 L 586 335 L 590.0679771541168 324.7798453106822 L 585.6944739112033 313.0021216066398 L 581.6497535457958 324.89676508302" stroke-miterlimit="10"/></g><g transform="translate(-230,-14) scale(1,1)"><g><path fill="none" stroke="none"/><text fill="#000000" stroke="none" font-family="Roboto" font-size="13px" font-style="normal" font-weight="normal" text-decoration="none" x="603.924560546875" y="281.5">+cible</text></g></g><g transform="translate(-230,-14) scale(1,1)"><g><path fill="none" stroke="none"/><text fill="#000000" stroke="none" font-family="Roboto" font-size="15px" font-style="normal" font-weight="normal" text-decoration="none" x="558.5" y="286.5">1</text></g></g><g transform="translate(-230,-14) scale(1,1)"><g><path fill="none" stroke="none"/><text fill="#000000" stroke="none" font-family="Roboto" font-size="15px" font-style="normal" font-weight="normal" text-decoration="none" x="558.5" y="324.5">*</text></g></g><g transform="translate(-230,-14) scale(1,1)"><rect fill="#C0C0C0" stroke="none" x="711" y="479" width="271.7041015625" height="165" opacity="0.2"/></g><g transform="translate(-230,-14) scale(1,1)"><rect fill="#ffffff" stroke="none" x="704" y="472" width="271.7041015625" height="165"/></g><g transform="translate(-230,-14) scale(1,1)"><path fill="none" stroke="#000000" d="M 704 472 L 975.7041015625 472 L 975.7041015625 637 L 704 637 L 704 472 Z Z" stroke-miterlimit="10"/></g><g transform="translate(-230,-14) scale(1,1)"><path fill="none" stroke="#000000" d="M 704 510 L 975.7041015625 510" stroke-miterlimit="10"/></g><g transform="translate(-230,-14) scale(1,1)"><g><path fill="none" stroke="none"/><text fill="#000000" stroke="none" font-family="Roboto" font-size="13px" font-style="normal" font-weight="normal" text-decoration="none" x="797.27197265625" y="489.5">«enumeration»</text></g></g><g transform="translate(-230,-14) scale(1,1)"><g><path fill="none" stroke="none"/><text fill="#000000" stroke="none" font-family="Roboto" font-size="13px" font-style="normal" font-weight="bold" text-decoration="none" x="800.245849609375" y="504.5">DBLockTypes</text></g></g><g transform="translate(-230,-14) scale(1,1)"><g><path fill="none" stroke="none"/><text fill="#000000" stroke="none" font-family="Roboto" font-size="13px" font-style="normal" font-weight="normal" text-decoration="none" x="709" y="527.5">X</text></g></g><g transform="translate(-230,-14) scale(1,1)"><g><path fill="none" stroke="none"/><text fill="#000000" stroke="none" font-family="Roboto" font-size="13px" font-style="normal" font-weight="normal" text-decoration="none" x="709" y="542.5">XE</text></g></g><g transform="translate(-230,-14) scale(1,1)"><g><path fill="none" stroke="none"/><text fill="#000000" stroke="none" font-family="Roboto" font-size="13px" font-style="normal" font-weight="normal" text-decoration="none" x="709" y="557.5">S</text></g></g><g transform="translate(-230,-14) scale(1,1)"><g><path fill="none" stroke="none"/><text fill="#000000" stroke="none" font-family="Roboto" font-size="13px" font-style="normal" font-weight="normal" text-decoration="none" x="709" y="572.5">SE</text></g></g><g transform="translate(-230,-14) scale(1,1)"><g><path fill="none" stroke="none"/><text fill="#000000" stroke="none" font-family="Roboto" font-size="13px" font-style="normal" font-weight="normal" text-decoration="none" x="709" y="587.5">U</text></g></g><g transform="translate(-230,-14) scale(1,1)"><g><path fill="none" stroke="none"/><text fill="#000000" stroke="none" font-family="Roboto" font-size="13px" font-style="normal" font-weight="normal" text-decoration="none" x="709" y="602.5">UE</text></g></g><g transform="translate(-230,-14) scale(1,1)"><g><path fill="none" stroke="none"/><text fill="#000000" stroke="none" font-family="Roboto" font-size="13px" font-style="normal" font-weight="normal" text-decoration="none" x="709" y="617.5">None</text></g></g><g transform="translate(-230,-14) scale(1,1)"><g><path fill="none" stroke="none"/><text fill="#000000" stroke="none" font-family="Roboto" font-size="13px" font-style="normal" font-weight="normal" text-decoration="none" x="709" y="632.5">compatibleWith(type: DBLockTypes): boolean</text></g></g><g transform="translate(-230,-14) scale(1,1)"><path fill="none" stroke="#000000" d="M 704 520 L 600 520 L 600 408" stroke-miterlimit="10"/></g><g transform="translate(-230,-14) scale(1,1)"><path fill="#FFFFFF" stroke="none" d="M 604.209517756016 418.16267485762415 L 600 408 L 595.790482243984 418.16267485762415 L 600 430"/></g><g transform="translate(-230,-14) scale(1,1)"><path fill="none" stroke="#000000" d="M 604.209517756016 418.16267485762415 L 600 408 L 595.790482243984 418.16267485762415 L 600 430 L 604.209517756016 418.16267485762415" stroke-miterlimit="10"/></g><g transform="translate(-230,-14) scale(1,1)"><g><path fill="none" stroke="none"/><text fill="#000000" stroke="none" font-family="Roboto" font-size="15px" font-style="normal" font-weight="normal" text-decoration="none" x="687.5" y="515.5">1</text></g></g><g transform="translate(-230,-14) scale(1,1)"><g><path fill="none" stroke="none"/><text fill="#000000" stroke="none" font-family="Roboto" font-size="15px" font-style="normal" font-weight="normal" text-decoration="none" x="606.5" y="428.5">*</text></g></g><g transform="translate(-230,-14) scale(1,1)"><rect fill="#C0C0C0" stroke="none" x="303" y="471" width="169.2783203125" height="105" opacity="0.2"/></g><g transform="translate(-230,-14) scale(1,1)"><rect fill="#ffffff" stroke="none" x="296" y="464" width="169.2783203125" height="105"/></g><g transform="translate(-230,-14) scale(1,1)"><path fill="none" stroke="#000000" d="M 296 464 L 465.2783203125 464 L 465.2783203125 569 L 296 569 L 296 464 Z Z" stroke-miterlimit="10"/></g><g transform="translate(-230,-14) scale(1,1)"><path fill="none" stroke="#000000" d="M 296 502 L 465.2783203125 502" stroke-miterlimit="10"/></g><g transform="translate(-230,-14) scale(1,1)"><g><path fill="none" stroke="none"/><text fill="#000000" stroke="none" font-family="Roboto" font-size="13px" font-style="normal" font-weight="normal" text-decoration="none" x="338.05908203125" y="481.5">«enumeration»</text></g></g><g transform="translate(-230,-14) scale(1,1)"><g><path fill="none" stroke="none"/><text fill="#000000" stroke="none" font-family="Roboto" font-size="13px" font-style="normal" font-weight="bold" text-decoration="none" x="301.81396484375" y="496.5">DBTransactionActionTypes</text></g></g><g transform="translate(-230,-14) scale(1,1)"><g><path fill="none" stroke="none"/><text fill="#000000" stroke="none" font-family="Roboto" font-size="13px" font-style="normal" font-weight="normal" text-decoration="none" x="301" y="519.5">find</text></g></g><g transform="translate(-230,-14) scale(1,1)"><g><path fill="none" stroke="none"/><text fill="#000000" stroke="none" font-family="Roboto" font-size="13px" font-style="normal" font-weight="normal" text-decoration="none" x="301" y="534.5">upd</text></g></g><g transform="translate(-230,-14) scale(1,1)"><g><path fill="none" stroke="none"/><text fill="#000000" stroke="none" font-family="Roboto" font-size="13px" font-style="normal" font-weight="normal" text-decoration="none" x="301" y="549.5">rollback</text></g></g><g transform="translate(-230,-14) scale(1,1)"><g><path fill="none" stroke="none"/><text fill="#000000" stroke="none" font-family="Roboto" font-size="13px" font-style="normal" font-weight="normal" text-decoration="none" x="301" y="564.5">commit</text></g></g><g transform="translate(-230,-14) scale(1,1)"><path fill="none" stroke="#000000" d="M 465 520 L 552 520 L 552 408" stroke-miterlimit="10"/></g><g transform="translate(-230,-14) scale(1,1)"><path fill="#FFFFFF" stroke="none" d="M 556.209517756016 418.16267485762415 L 552 408 L 547.790482243984 418.16267485762415 L 552 430"/></g><g transform="translate(-230,-14) scale(1,1)"><path fill="none" stroke="#000000" d="M 556.209517756016 418.16267485762415 L 552 408 L 547.790482243984 418.16267485762415 L 552 430 L 556.209517756016 418.16267485762415" stroke-miterlimit="10"/></g><g transform="translate(-230,-14) scale(1,1)"><g><path fill="none" stroke="none"/><text fill="#000000" stroke="none" font-family="Roboto" font-size="15px" font-style="normal" font-weight="normal" text-decoration="none" x="470.5" y="517.5">1</text></g></g><g transform="translate(-230,-14) scale(1,1)"><g><path fill="none" stroke="none"/><text fill="#000000" stroke="none" font-family="Roboto" font-size="15px" font-style="normal" font-weight="normal" text-decoration="none" x="526.5" y="429.5">*</text></g></g><g transform="translate(-230,-14) scale(1,1)"><rect fill="#C0C0C0" stroke="none" x="791" y="359" width="95.68359375" height="57" opacity="0.2"/></g><g transform="translate(-230,-14) scale(1,1)"><rect fill="#ffffff" stroke="none" x="784" y="352" width="95.68359375" height="57"/></g><g transform="translate(-230,-14) scale(1,1)"><path fill="none" stroke="#000000" d="M 784 352 L 879.68359375 352 L 879.68359375 409 L 784 409 L 784 352 Z Z" stroke-miterlimit="10"/></g><g transform="translate(-230,-14) scale(1,1)"><path fill="none" stroke="#000000" d="M 784 377 L 879.68359375 377" stroke-miterlimit="10"/></g><g transform="translate(-230,-14) scale(1,1)"><path fill="none" stroke="#000000" d="M 784 387 L 879.68359375 387" stroke-miterlimit="10"/></g><g transform="translate(-230,-14) scale(1,1)"><g><path fill="none" stroke="none"/><text fill="#000000" stroke="none" font-family="Roboto" font-size="13px" font-style="normal" font-weight="bold" text-decoration="none" x="789.049072265625" y="371.5">DBTransaction</text></g></g><g transform="translate(-230,-14) scale(1,1)"><g><path fill="none" stroke="none"/><text fill="#000000" stroke="none" font-family="Roboto" font-size="13px" font-style="normal" font-weight="normal" text-decoration="none" x="789" y="404.5">+getActions()</text></g></g><g transform="translate(-230,-14) scale(1,1)"><path fill="none" stroke="#000000" d="M 697 376 L 783 378" stroke-miterlimit="10"/></g><g transform="translate(-230,-14) scale(1,1)"><path fill="#FFFFFF" stroke="none" d="M 707.2577971173494 372.02789749637543 L 697 376 L 707.0620585175944 380.44465728583253 L 718.9940532503306 376.5114896104728"/></g><g transform="translate(-230,-14) scale(1,1)"><path fill="none" stroke="#000000" d="M 707.2577971173494 372.02789749637543 L 697 376 L 707.0620585175944 380.44465728583253 L 718.9940532503306 376.5114896104728 L 707.2577971173494 372.02789749637543" stroke-miterlimit="10"/></g><g transform="translate(-230,-14) scale(1,1)"><g><path fill="none" stroke="none"/><text fill="#000000" stroke="none" font-family="Roboto" font-size="15px" font-style="normal" font-weight="normal" text-decoration="none" x="703.5" y="399.5">*</text></g></g><g transform="translate(-230,-14) scale(1,1)"><g><path fill="none" stroke="none"/><text fill="#000000" stroke="none" font-family="Roboto" font-size="15px" font-style="normal" font-weight="normal" text-decoration="none" x="765.5" y="396.5">*</text></g></g><g transform="translate(-230,-14) scale(1,1)"><rect fill="#C0C0C0" stroke="none" x="247" y="199" width="224" height="72" opacity="0.2"/></g><g transform="translate(-230,-14) scale(1,1)"><rect fill="#ffffff" stroke="none" x="240" y="192" width="224" height="72"/></g><g transform="translate(-230,-14) scale(1,1)"><path fill="none" stroke="#000000" d="M 240 192 L 464 192 L 464 264 L 240 264 L 240 192 Z Z" stroke-miterlimit="10"/></g><g transform="translate(-230,-14) scale(1,1)"><path fill="none" stroke="#000000" d="M 240 217 L 464 217" stroke-miterlimit="10"/></g><g transform="translate(-230,-14) scale(1,1)"><path fill="none" stroke="#000000" d="M 240 227 L 464 227" stroke-miterlimit="10"/></g><g transform="translate(-230,-14) scale(1,1)"><g><path fill="none" stroke="none"/><text fill="#000000" stroke="none" font-family="Roboto" font-size="13px" font-style="italic" font-weight="bold" text-decoration="none" x="301.03466796875" y="211.5">AvailableGranules</text></g></g><g transform="translate(-230,-14) scale(1,1)"><g><path fill="none" stroke="none"/><text fill="#000000" stroke="none" font-family="Roboto" font-size="13px" font-style="normal" font-weight="normal" text-decoration="none" x="245" y="244.5">+add(granule: DBGranule): boolean</text><path fill="none" stroke="#000000" d="M 245 244.5 L 446.677734375 244.5" stroke-miterlimit="10"/></g></g><g transform="translate(-230,-14) scale(1,1)"><g><path fill="none" stroke="none"/><text fill="#000000" stroke="none" font-family="Roboto" font-size="13px" font-style="normal" font-weight="normal" text-decoration="none" x="245" y="259.5">+get(name: String): DBGranule</text><path fill="none" stroke="#000000" d="M 245 259.5 L 420.322265625 259.5" stroke-miterlimit="10"/></g></g><g transform="translate(-230,-14) scale(1,1)"><path fill="none" stroke="#000000" d="M 465 228 L 511 227" stroke-miterlimit="10"/></g><g transform="translate(-230,-14) scale(1,1)"><g><path fill="none" stroke="none"/><text fill="#000000" stroke="none" font-family="Roboto" font-size="15px" font-style="normal" font-weight="normal" text-decoration="none" x="474.5" y="227.5">*</text></g></g><g transform="translate(-230,-14) scale(1,1)"><rect fill="#C0C0C0" stroke="none" x="879" y="207" width="294.05419921875" height="102" opacity="0.2"/></g><g transform="translate(-230,-14) scale(1,1)"><rect fill="#ffffff" stroke="none" x="872" y="200" width="294.05419921875" height="102"/></g><g transform="translate(-230,-14) scale(1,1)"><path fill="none" stroke="#000000" d="M 872 200 L 1166.05419921875 200 L 1166.05419921875 302 L 872 302 L 872 200 Z Z" stroke-miterlimit="10"/></g><g transform="translate(-230,-14) scale(1,1)"><path fill="none" stroke="#000000" d="M 872 225 L 1166.05419921875 225" stroke-miterlimit="10"/></g><g transform="translate(-230,-14) scale(1,1)"><path fill="none" stroke="#000000" d="M 872 235 L 1166.05419921875 235" stroke-miterlimit="10"/></g><g transform="translate(-230,-14) scale(1,1)"><g><path fill="none" stroke="none"/><text fill="#000000" stroke="none" font-family="Roboto" font-size="13px" font-style="normal" font-weight="bold" text-decoration="none" x="986.266845703125" y="219.5">DBLockList</text></g></g><g transform="translate(-230,-14) scale(1,1)"><g><path fill="none" stroke="none"/><text fill="#000000" stroke="none" font-family="Roboto" font-size="13px" font-style="normal" font-weight="normal" text-decoration="none" x="877" y="252.5">+hasLockOn(granule: DBGranule): boolean</text></g></g><g transform="translate(-230,-14) scale(1,1)"><g><path fill="none" stroke="none"/><text fill="#000000" stroke="none" font-family="Roboto" font-size="13px" font-style="normal" font-weight="normal" text-decoration="none" x="877" y="267.5">+hasPendingOn(granule: DBGranule): boolean</text></g></g><g transform="translate(-230,-14) scale(1,1)"><g><path fill="none" stroke="none"/><text fill="#000000" stroke="none" font-family="Roboto" font-size="13px" font-style="normal" font-weight="normal" text-decoration="none" x="877" y="282.5">+getLockTypesOn(granule: DBGranule)</text></g></g><g transform="translate(-230,-14) scale(1,1)"><g><path fill="none" stroke="none"/><text fill="#000000" stroke="none" font-family="Roboto" font-size="13px" font-style="normal" font-weight="normal" text-decoration="none" x="877" y="297.5">+getPendingLocksOn(granule: DBGranule)</text></g></g><g transform="translate(-230,-14) scale(1,1)"><rect fill="#C0C0C0" stroke="none" x="967" y="31" width="114.421875" height="59" opacity="0.2"/></g><g transform="translate(-230,-14) scale(1,1)"><rect fill="#ffffff" stroke="none" x="960" y="24" width="114.421875" height="59"/></g><g transform="translate(-230,-14) scale(1,1)"><path fill="none" stroke="#000000" d="M 960 24 L 1074.421875 24 L 1074.421875 83 L 960 83 L 960 24 Z Z" stroke-miterlimit="10"/></g><g transform="translate(-230,-14) scale(1,1)"><path fill="none" stroke="#000000" d="M 960 64 L 1074.421875 64" stroke-miterlimit="10"/></g><g transform="translate(-230,-14) scale(1,1)"><path fill="none" stroke="#000000" d="M 960 74 L 1074.421875 74" stroke-miterlimit="10"/></g><g transform="translate(-230,-14) scale(1,1)"><g><path fill="none" stroke="none"/><text fill="#000000" stroke="none" font-family="Roboto" font-size="13px" font-style="normal" font-weight="bold" text-decoration="none" x="1003.3095703125" y="43.5">Lock</text></g></g><g transform="translate(-230,-14) scale(1,1)"><g><path fill="none" stroke="none"/><text fill="#000000" stroke="none" font-family="Roboto" font-size="13px" font-style="normal" font-weight="normal" text-decoration="none" x="964.5" y="58.5">(from DBLockList)</text></g></g><g transform="translate(-230,-14) scale(1,1)"><path fill="none" stroke="#000000" d="M 984 200 L 984 83" stroke-miterlimit="10"/></g><g transform="translate(-230,-14) scale(1,1)"><g><path fill="none" stroke="none"/><text fill="#000000" stroke="none" font-family="Roboto" font-size="13px" font-style="normal" font-weight="normal" text-decoration="none" x="920.5" y="116.5">+verrous</text></g></g><g transform="translate(-230,-14) scale(1,1)"><g><path fill="none" stroke="none"/><text fill="#000000" stroke="none" font-family="Roboto" font-size="15px" font-style="normal" font-weight="normal" text-decoration="none" x="966.5" y="101.5">*</text></g></g><g transform="translate(-230,-14) scale(1,1)"><path fill="none" stroke="#000000" d="M 1048 200 L 1048 83" stroke-miterlimit="10"/></g><g transform="translate(-230,-14) scale(1,1)"><g><path fill="none" stroke="none"/><text fill="#000000" stroke="none" font-family="Roboto" font-size="13px" font-style="normal" font-weight="normal" text-decoration="none" x="1057.5" y="115.5">+en attente</text></g></g><g transform="translate(-230,-14) scale(1,1)"><g><path fill="none" stroke="none"/><text fill="#000000" stroke="none" font-family="Roboto" font-size="15px" font-style="normal" font-weight="normal" text-decoration="none" x="1054.5" y="102.5">*</text></g></g><g transform="translate(-230,-14) scale(1,1)"><path fill="#ffffff" stroke="none" d="M 864 144 L 922 144 L 932 154 L 932 182 L 864 182 L 864 144"/></g><g transform="translate(-230,-14) scale(1,1)"><path fill="none" stroke="#000000" d="M 864 144 L 922 144 L 932 154 L 932 182 L 864 182 L 864 144 L 864 144" stroke-miterlimit="10"/></g><g transform="translate(-230,-14) scale(1,1)"><path fill="none" stroke="#000000" d="M 922 144 L 922 154 L 932 154 L 922 144" stroke-miterlimit="10"/></g><g transform="translate(-230,-14) scale(1,1)"><g><path fill="none" stroke="none"/><text fill="#000000" stroke="none" font-family="Roboto" font-size="13px" font-style="normal" font-weight="normal" text-decoration="none" x="869" y="162">{xor}</text></g></g><g transform="translate(-230,-14) scale(1,1)"><path fill="none" stroke="#000000" d="M 934 158 L 1048 158 L 1048 142" stroke-miterlimit="10" stroke-dasharray="3"/></g><g transform="translate(-230,-14) scale(1,1)"><path fill="none" stroke="#000000" d="M 934 154 L 984 141" stroke-miterlimit="10" stroke-dasharray="3"/></g><g transform="translate(-230,-14) scale(1,1)"><rect fill="#C0C0C0" stroke="none" x="951" y="367" width="153.16162109375" height="44" opacity="0.2"/></g><g transform="translate(-230,-14) scale(1,1)"><rect fill="#ffffff" stroke="none" x="944" y="360" width="153.16162109375" height="44"/></g><g transform="translate(-230,-14) scale(1,1)"><path fill="none" stroke="#000000" d="M 944 360 L 1097.16162109375 360 L 1097.16162109375 404 L 944 404 L 944 360 Z Z" stroke-miterlimit="10"/></g><g transform="translate(-230,-14) scale(1,1)"><path fill="none" stroke="#000000" d="M 944 385 L 1097.16162109375 385" stroke-miterlimit="10"/></g><g transform="translate(-230,-14) scale(1,1)"><path fill="none" stroke="#000000" d="M 944 395 L 1097.16162109375 395" stroke-miterlimit="10"/></g><g transform="translate(-230,-14) scale(1,1)"><g><path fill="none" stroke="none"/><text fill="#000000" stroke="none" font-family="Roboto" font-size="13px" font-style="normal" font-weight="bold" text-decoration="none" x="949.448974609375" y="379.5">DBTransactionExecution</text></g></g><g transform="translate(-230,-14) scale(1,1)"><path fill="none" stroke="#000000" d="M 881 381 L 943 381" stroke-miterlimit="10"/></g><g transform="translate(-230,-14) scale(1,1)"><path fill="#FFFFFF" stroke="none" d="M 932.8373251423759 385.209517756016 L 943 381 L 932.8373251423758 376.790482243984 L 921 381"/></g><g transform="translate(-230,-14) scale(1,1)"><path fill="none" stroke="#000000" d="M 932.8373251423759 385.209517756016 L 943 381 L 932.8373251423758 376.790482243984 L 921 381 L 932.8373251423759 385.209517756016" stroke-miterlimit="10"/></g><g transform="translate(-230,-14) scale(1,1)"><g><path fill="none" stroke="none"/><text fill="#000000" stroke="none" font-family="Roboto" font-size="15px" font-style="normal" font-weight="normal" text-decoration="none" x="884.5" y="373.5">1</text></g></g><g transform="translate(-230,-14) scale(1,1)"><g><path fill="none" stroke="none"/><text fill="#000000" stroke="none" font-family="Roboto" font-size="15px" font-style="normal" font-weight="normal" text-decoration="none" x="927.919921875" y="405.5">*</text></g></g><g transform="translate(-230,-14) scale(1,1)"><path fill="none" stroke="#000000" d="M 1024 302 L 1024 360" stroke-miterlimit="10"/></g><g transform="translate(-230,-14) scale(1,1)"><path fill="#FFFFFF" stroke="none" d="M 1019.790482243984 349.83732514237585 L 1024 360 L 1028.2095177560159 349.83732514237585 L 1024 338"/></g><g transform="translate(-230,-14) scale(1,1)"><path fill="none" stroke="#000000" d="M 1019.790482243984 349.83732514237585 L 1024 360 L 1028.2095177560159 349.83732514237585 L 1024 338 L 1019.790482243984 349.83732514237585" stroke-miterlimit="10"/></g><g transform="translate(-230,-14) scale(1,1)"><g><path fill="none" stroke="none"/><text fill="#000000" stroke="none" font-family="Roboto" font-size="15px" font-style="normal" font-weight="normal" text-decoration="none" x="1004.5" y="323.5">1</text></g></g><g transform="translate(-230,-14) scale(1,1)"><g><path fill="none" stroke="none"/><text fill="#000000" stroke="none" font-family="Roboto" font-size="15px" font-style="normal" font-weight="normal" text-decoration="none" x="1031.919921875" y="357.5">*</text></g></g><g transform="translate(-230,-14) scale(1,1)"><path fill="none" stroke="#000000" d="M 1144 302 L 1144 554 L 976 554" stroke-miterlimit="10" stroke-dasharray="3"/></g><g transform="translate(-230,-14) scale(1,1)"><path fill="none" stroke="#000000" d="M 986.1626748576241 549.790482243984 L 976 554 L 986.1626748576241 558.209517756016" stroke-miterlimit="10"/></g></g></svg>