<svg version="1.1" xmlns="http://www.w3.org/2000/svg" xmlns:xlink="http://www.w3.org/1999/xlink" width="1695" height="1500"><defs/><g><g transform="translate(-134,10) scale(1,1)"><path fill="none" stroke="#000000" d="M 144 0 L 1819 0 L 1819 1480 L 144 1480 L 144 0" stroke-miterlimit="10"/></g><g transform="translate(-134,10) scale(1,1)"><path fill="#ffffff" stroke="none" d="M 144 0 L 144 24 L 320.1513671875 24 L 332.1513671875 12 L 332.1513671875 0 L 144 0"/></g><g transform="translate(-134,10) scale(1,1)"><path fill="none" stroke="#000000" d="M 144 0 L 144 24 L 320.1513671875 24 L 332.1513671875 12 L 332.1513671875 0 L 144 0 L 144 0" stroke-miterlimit="10"/></g><g transform="translate(-134,10) scale(1,1)"><g><path fill="none" stroke="none"/><text fill="#000000" stroke="none" font-family="Roboto" font-size="15px" font-style="normal" font-weight="normal" text-decoration="none" x="226.220703125" y="19.5">échange type</text></g></g><g transform="translate(-134,10) scale(1,1)"><g><path fill="none" stroke="none"/><text fill="#000000" stroke="none" font-family="Roboto" font-size="15px" font-style="normal" font-weight="bold" text-decoration="none" x="149" y="19.5">interaction</text></g></g><g transform="translate(-134,10) scale(1,1)"><rect fill="#C0C0C0" stroke="none" x="351" y="47" width="71.736328125" height="39" opacity="0.2"/></g><g transform="translate(-134,10) scale(1,1)"><rect fill="#ffffff" stroke="none" x="344" y="40" width="71.736328125" height="39"/></g><g transform="translate(-134,10) scale(1,1)"><path fill="none" stroke="#000000" d="M 344 40 L 415.736328125 40 L 415.736328125 79 L 344 79 L 344 40 Z Z" stroke-miterlimit="10"/></g><g transform="translate(-134,10) scale(1,1)"><g><path fill="none" stroke="none"/><text fill="#000000" stroke="none" font-family="Roboto" font-size="15px" font-style="normal" font-weight="bold" text-decoration="none" x="364.62646484375" y="61.5">User</text></g></g><g transform="translate(-134,10) scale(1,1)"><path fill="none" stroke="#000000" d="M 380.5 80 L 380.5 1432" stroke-miterlimit="10" stroke-dasharray="3"/></g><g transform="translate(-134,10) scale(1,1)"><rect fill="#C0C0C0" stroke="none" x="599" y="47" width="168.9853515625" height="39" opacity="0.2"/></g><g transform="translate(-134,10) scale(1,1)"><rect fill="#ffffff" stroke="none" x="592" y="40" width="168.9853515625" height="39"/></g><g transform="translate(-134,10) scale(1,1)"><path fill="none" stroke="#000000" d="M 592 40 L 760.9853515625 40 L 760.9853515625 79 L 592 79 L 592 40 Z Z" stroke-miterlimit="10"/></g><g transform="translate(-134,10) scale(1,1)"><g><path fill="none" stroke="none"/><text fill="#000000" stroke="none" font-family="Roboto" font-size="15px" font-style="normal" font-weight="bold" text-decoration="none" x="602.741455078125" y="61.5">Application Graphique</text></g></g><g transform="translate(-134,10) scale(1,1)"><path fill="none" stroke="#000000" d="M 677.5 80 L 677.5 1432" stroke-miterlimit="10" stroke-dasharray="3"/></g><g transform="translate(-134,10) scale(1,1)"><rect fill="#C0C0C0" stroke="none" x="823" y="47" width="186.81982421875" height="39" opacity="0.2"/></g><g transform="translate(-134,10) scale(1,1)"><rect fill="#ffffff" stroke="none" x="816" y="40" width="186.81982421875" height="39"/></g><g transform="translate(-134,10) scale(1,1)"><path fill="none" stroke="#000000" d="M 816 40 L 1002.81982421875 40 L 1002.81982421875 79 L 816 79 L 816 40 Z Z" stroke-miterlimit="10"/></g><g transform="translate(-134,10) scale(1,1)"><g><path fill="none" stroke="none"/><text fill="#000000" stroke="none" font-family="Roboto" font-size="15px" font-style="normal" font-weight="bold" text-decoration="none" x="826.594970703125" y="61.5">Gestionnaire de modèles</text></g></g><g transform="translate(-134,10) scale(1,1)"><path fill="none" stroke="#000000" d="M 910.5 80 L 910.5 1432" stroke-miterlimit="10" stroke-dasharray="3"/></g><g transform="translate(-134,10) scale(1,1)"><rect fill="#C0C0C0" stroke="none" x="1311" y="47" width="206.3828125" height="39" opacity="0.2"/></g><g transform="translate(-134,10) scale(1,1)"><rect fill="#ffffff" stroke="none" x="1304" y="40" width="206.3828125" height="39"/></g><g transform="translate(-134,10) scale(1,1)"><path fill="none" stroke="#000000" d="M 1304 40 L 1510.3828125 40 L 1510.3828125 79 L 1304 79 L 1304 40 Z Z" stroke-miterlimit="10"/></g><g transform="translate(-134,10) scale(1,1)"><g><path fill="none" stroke="none"/><text fill="#000000" stroke="none" font-family="Roboto" font-size="15px" font-style="normal" font-weight="bold" text-decoration="none" x="1315.151611328125" y="61.5">Gestionnaire de contrôleurs</text></g></g><g transform="translate(-134,10) scale(1,1)"><path fill="none" stroke="#000000" d="M 1408.5 80 L 1408.5 1432" stroke-miterlimit="10" stroke-dasharray="3"/></g><g transform="translate(-134,10) scale(1,1)"><path fill="none" stroke="#000000" d="M 320 552 L 1768 552 L 1768 1432 L 320 1432 L 320 552" stroke-miterlimit="10"/></g><g transform="translate(-134,10) scale(1,1)"><path fill="#ffffff" stroke="none" d="M 320 552 L 320 576 L 657.1669921875 576 L 669.1669921875 564 L 669.1669921875 552 L 320 552"/></g><g transform="translate(-134,10) scale(1,1)"><path fill="none" stroke="#000000" d="M 320 552 L 320 576 L 657.1669921875 576 L 669.1669921875 564 L 669.1669921875 552 L 320 552 L 320 552" stroke-miterlimit="10"/></g><g transform="translate(-134,10) scale(1,1)"><g><path fill="none" stroke="none"/><text fill="#000000" stroke="none" font-family="Roboto" font-size="15px" font-style="normal" font-weight="normal" text-decoration="none" x="360.1650390625" y="571.5">Opération(s) restante(s) et non interblocage</text></g></g><g transform="translate(-134,10) scale(1,1)"><g><path fill="none" stroke="none"/><text fill="#000000" stroke="none" font-family="Roboto" font-size="15px" font-style="normal" font-weight="bold" text-decoration="none" x="325" y="571.5">loop</text></g></g><g transform="translate(-134,10) scale(1,1)"><path fill="none" stroke="#000000" d="M 1160 680 L 1608 680 L 1608 970 L 1160 970 L 1160 680" stroke-miterlimit="10"/></g><g transform="translate(-134,10) scale(1,1)"><path fill="#ffffff" stroke="none" d="M 1160 680 L 1160 704 L 1192.69921875 704 L 1204.69921875 692 L 1204.69921875 680 L 1160 680"/></g><g transform="translate(-134,10) scale(1,1)"><path fill="none" stroke="#000000" d="M 1160 680 L 1160 704 L 1192.69921875 704 L 1204.69921875 692 L 1204.69921875 680 L 1160 680 L 1160 680" stroke-miterlimit="10"/></g><g transform="translate(-134,10) scale(1,1)"><g><path fill="none" stroke="none"/><text fill="#000000" stroke="none" font-family="Roboto" font-size="15px" font-style="normal" font-weight="bold" text-decoration="none" x="1165" y="699.5">alt</text></g></g><g transform="translate(-134,10) scale(1,1)"><path fill="none" stroke="#000000" d="M 1336 776 L 1584 776 L 1584 944 L 1336 944 L 1336 776" stroke-miterlimit="10"/></g><g transform="translate(-134,10) scale(1,1)"><path fill="#ffffff" stroke="none" d="M 1336 776 L 1336 800 L 1368.69921875 800 L 1380.69921875 788 L 1380.69921875 776 L 1336 776"/></g><g transform="translate(-134,10) scale(1,1)"><path fill="none" stroke="#000000" d="M 1336 776 L 1336 800 L 1368.69921875 800 L 1380.69921875 788 L 1380.69921875 776 L 1336 776 L 1336 776" stroke-miterlimit="10"/></g><g transform="translate(-134,10) scale(1,1)"><g><path fill="none" stroke="none"/><text fill="#000000" stroke="none" font-family="Roboto" font-size="15px" font-style="normal" font-weight="bold" text-decoration="none" x="1341" y="795.5">alt</text></g></g><g transform="translate(-134,10) scale(1,1)"><path fill="none" stroke="#000000" d="M 1336 859 L 1584 859" stroke-miterlimit="10" stroke-dasharray="10,3"/></g><g transform="translate(-134,10) scale(1,1)"><path fill="#ffffff" stroke="none" d="M 1136 584 L 1293 584 L 1303 594 L 1303 631 L 1136 631 L 1136 584"/></g><g transform="translate(-134,10) scale(1,1)"><path fill="none" stroke="#000000" d="M 1136 584 L 1293 584 L 1303 594 L 1303 631 L 1136 631 L 1136 584 L 1136 584" stroke-miterlimit="10"/></g><g transform="translate(-134,10) scale(1,1)"><path fill="none" stroke="#000000" d="M 1293 584 L 1293 594 L 1303 594 L 1293 584" stroke-miterlimit="10"/></g><g transform="translate(-134,10) scale(1,1)"><g><path fill="none" stroke="none"/><text fill="#000000" stroke="none" font-family="Roboto" font-size="15px" font-style="normal" font-weight="normal" text-decoration="none" x="1141" y="604">l'opération courante</text><text fill="#000000" stroke="none" font-family="Roboto" font-size="15px" font-style="normal" font-weight="normal" text-decoration="none" x="1141" y="619">requiert un verrrou</text></g></g><g transform="translate(-134,10) scale(1,1)"><path fill="none" stroke="#000000" d="M 1239 633 L 1274 679" stroke-miterlimit="10" stroke-dasharray="3"/></g><g transform="translate(-134,10) scale(1,1)"><path fill="#ffffff" stroke="none" d="M 1264 704 L 1373 704 L 1383 714 L 1383 759 L 1264 759 L 1264 704"/></g><g transform="translate(-134,10) scale(1,1)"><path fill="none" stroke="#000000" d="M 1264 704 L 1373 704 L 1383 714 L 1383 759 L 1264 759 L 1264 704 L 1264 704" stroke-miterlimit="10"/></g><g transform="translate(-134,10) scale(1,1)"><path fill="none" stroke="#000000" d="M 1373 704 L 1373 714 L 1383 714 L 1373 704" stroke-miterlimit="10"/></g><g transform="translate(-134,10) scale(1,1)"><g><path fill="none" stroke="none"/><text fill="#000000" stroke="none" font-family="Roboto" font-size="15px" font-style="normal" font-weight="normal" text-decoration="none" x="1269" y="724">possible</text><text fill="#000000" stroke="none" font-family="Roboto" font-size="15px" font-style="normal" font-weight="normal" text-decoration="none" x="1269" y="739">d'obtenir le</text><text fill="#000000" stroke="none" font-family="Roboto" font-size="15px" font-style="normal" font-weight="normal" text-decoration="none" x="1269" y="754">verrou</text></g></g><g transform="translate(-134,10) scale(1,1)"><path fill="none" stroke="#000000" d="M 1355 761 L 1370 775" stroke-miterlimit="10" stroke-dasharray="3"/></g><g transform="translate(-134,10) scale(1,1)"><path fill="#ffffff" stroke="none" d="M 1184 872 L 1293 872 L 1303 882 L 1303 927 L 1184 927 L 1184 872"/></g><g transform="translate(-134,10) scale(1,1)"><path fill="none" stroke="#000000" d="M 1184 872 L 1293 872 L 1303 882 L 1303 927 L 1184 927 L 1184 872 L 1184 872" stroke-miterlimit="10"/></g><g transform="translate(-134,10) scale(1,1)"><path fill="none" stroke="#000000" d="M 1293 872 L 1293 882 L 1303 882 L 1293 872" stroke-miterlimit="10"/></g><g transform="translate(-134,10) scale(1,1)"><g><path fill="none" stroke="none"/><text fill="#000000" stroke="none" font-family="Roboto" font-size="15px" font-style="normal" font-weight="normal" text-decoration="none" x="1189" y="892">impossible</text><text fill="#000000" stroke="none" font-family="Roboto" font-size="15px" font-style="normal" font-weight="normal" text-decoration="none" x="1189" y="907">d'obtenir le</text><text fill="#000000" stroke="none" font-family="Roboto" font-size="15px" font-style="normal" font-weight="normal" text-decoration="none" x="1189" y="922">verrou</text></g></g><g transform="translate(-134,10) scale(1,1)"><path fill="none" stroke="#000000" d="M 1305 889 L 1335 883" stroke-miterlimit="10" stroke-dasharray="3"/></g><g transform="translate(-134,10) scale(1,1)"><path fill="none" stroke="#000000" d="M 1176 992 L 1728 992 L 1728 1160 L 1176 1160 L 1176 992" stroke-miterlimit="10"/></g><g transform="translate(-134,10) scale(1,1)"><path fill="#ffffff" stroke="none" d="M 1176 992 L 1176 1016 L 1208.69921875 1016 L 1220.69921875 1004 L 1220.69921875 992 L 1176 992"/></g><g transform="translate(-134,10) scale(1,1)"><path fill="none" stroke="#000000" d="M 1176 992 L 1176 1016 L 1208.69921875 1016 L 1220.69921875 1004 L 1220.69921875 992 L 1176 992 L 1176 992" stroke-miterlimit="10"/></g><g transform="translate(-134,10) scale(1,1)"><g><path fill="none" stroke="none"/><text fill="#000000" stroke="none" font-family="Roboto" font-size="15px" font-style="normal" font-weight="bold" text-decoration="none" x="1181" y="1011.5">alt</text></g></g><g transform="translate(-134,10) scale(1,1)"><path fill="#ffffff" stroke="none" d="M 1016 976 L 1117 976 L 1127 986 L 1127 1031 L 1016 1031 L 1016 976"/></g><g transform="translate(-134,10) scale(1,1)"><path fill="none" stroke="#000000" d="M 1016 976 L 1117 976 L 1127 986 L 1127 1031 L 1016 1031 L 1016 976 L 1016 976" stroke-miterlimit="10"/></g><g transform="translate(-134,10) scale(1,1)"><path fill="none" stroke="#000000" d="M 1117 976 L 1117 986 L 1127 986 L 1117 976" stroke-miterlimit="10"/></g><g transform="translate(-134,10) scale(1,1)"><g><path fill="none" stroke="none"/><text fill="#000000" stroke="none" font-family="Roboto" font-size="15px" font-style="normal" font-weight="normal" text-decoration="none" x="1021" y="996">l'opération</text><text fill="#000000" stroke="none" font-family="Roboto" font-size="15px" font-style="normal" font-weight="normal" text-decoration="none" x="1021" y="1011">libère son</text><text fill="#000000" stroke="none" font-family="Roboto" font-size="15px" font-style="normal" font-weight="normal" text-decoration="none" x="1021" y="1026">verrou</text></g></g><g transform="translate(-134,10) scale(1,1)"><path fill="none" stroke="#000000" d="M 1129 1015 L 1175 1024" stroke-miterlimit="10" stroke-dasharray="3"/></g><g transform="translate(-134,10) scale(1,1)"><path fill="#ffffff" stroke="none" d="M 1192 1064 L 1357 1064 L 1367 1074 L 1367 1149 L 1192 1149 L 1192 1064"/></g><g transform="translate(-134,10) scale(1,1)"><path fill="none" stroke="#000000" d="M 1192 1064 L 1357 1064 L 1367 1074 L 1367 1149 L 1192 1149 L 1192 1064 L 1192 1064" stroke-miterlimit="10"/></g><g transform="translate(-134,10) scale(1,1)"><path fill="none" stroke="#000000" d="M 1357 1064 L 1357 1074 L 1367 1074 L 1357 1064" stroke-miterlimit="10"/></g><g transform="translate(-134,10) scale(1,1)"><g><path fill="none" stroke="none"/><text fill="#000000" stroke="none" font-family="Roboto" font-size="15px" font-style="normal" font-weight="normal" text-decoration="none" x="1197" y="1084">ajoute les opérations</text><text fill="#000000" stroke="none" font-family="Roboto" font-size="15px" font-style="normal" font-weight="normal" text-decoration="none" x="1197" y="1099">exécutables à la liste</text><text fill="#000000" stroke="none" font-family="Roboto" font-size="15px" font-style="normal" font-weight="normal" text-decoration="none" x="1197" y="1114">d'exécution (à la suite de</text><text fill="#000000" stroke="none" font-family="Roboto" font-size="15px" font-style="normal" font-weight="normal" text-decoration="none" x="1197" y="1129">l'opération courante)</text></g></g><g transform="translate(-134,10) scale(1,1)"><path fill="#ffffff" stroke="none" d="M 200 424 L 333 424 L 343 434 L 343 524 L 200 524 L 200 424"/></g><g transform="translate(-134,10) scale(1,1)"><path fill="none" stroke="#000000" d="M 200 424 L 333 424 L 343 434 L 343 524 L 200 524 L 200 424 L 200 424" stroke-miterlimit="10"/></g><g transform="translate(-134,10) scale(1,1)"><path fill="none" stroke="#000000" d="M 333 424 L 333 434 L 343 434 L 333 424" stroke-miterlimit="10"/></g><g transform="translate(-134,10) scale(1,1)"><g><path fill="none" stroke="none"/><text fill="#000000" stroke="none" font-family="Roboto" font-size="15px" font-style="normal" font-weight="normal" text-decoration="none" x="205" y="444">On continue</text><text fill="#000000" stroke="none" font-family="Roboto" font-size="15px" font-style="normal" font-weight="normal" text-decoration="none" x="205" y="459">l'exécution tant qu'il</text><text fill="#000000" stroke="none" font-family="Roboto" font-size="15px" font-style="normal" font-weight="normal" text-decoration="none" x="205" y="474">reste des</text><text fill="#000000" stroke="none" font-family="Roboto" font-size="15px" font-style="normal" font-weight="normal" text-decoration="none" x="205" y="489">opérations et qu'il</text><text fill="#000000" stroke="none" font-family="Roboto" font-size="15px" font-style="normal" font-weight="normal" text-decoration="none" x="205" y="504">n'y a pas</text><text fill="#000000" stroke="none" font-family="Roboto" font-size="15px" font-style="normal" font-weight="normal" text-decoration="none" x="205" y="519">d'interblocage</text></g></g><g transform="translate(-134,10) scale(1,1)"><path fill="none" stroke="#000000" d="M 345 523 L 387 551" stroke-miterlimit="10" stroke-dasharray="3"/></g><g transform="translate(-134,10) scale(1,1)"><path fill="none" stroke="#000000" d="M 380 105 L 670 105" stroke-miterlimit="10"/></g><g transform="translate(-134,10) scale(1,1)"><path fill="#000000" stroke="none" d="M 659.8373251423759 109.20951775601598 L 670 105 L 659.8373251423758 100.79048224398402"/></g><g transform="translate(-134,10) scale(1,1)"><path fill="none" stroke="#000000" d="M 659.8373251423759 109.20951775601598 L 670 105 L 659.8373251423758 100.79048224398402 L 659.8373251423759 109.20951775601598" stroke-miterlimit="10"/></g><g transform="translate(-134,10) scale(1,1)"><g><path fill="none" stroke="none"/><text fill="#000000" stroke="none" font-family="Roboto" font-size="15px" font-style="normal" font-weight="normal" text-decoration="none" x="413.5" y="102.5">1 : Choix du fichier de transaction</text></g></g><g transform="translate(-134,10) scale(1,1)"><rect fill="#ffffff" stroke="none" x="670" y="105" width="13" height="28"/></g><g transform="translate(-134,10) scale(1,1)"><path fill="none" stroke="#000000" d="M 670 105 L 683 105 L 683 133 L 670 133 L 670 105 Z Z" stroke-miterlimit="10"/></g><g transform="translate(-134,10) scale(1,1)"><path fill="none" stroke="#000000" d="M 677 152 L 903 152" stroke-miterlimit="10"/></g><g transform="translate(-134,10) scale(1,1)"><path fill="#000000" stroke="none" d="M 892.8373251423759 156.209517756016 L 903 152 L 892.8373251423758 147.790482243984"/></g><g transform="translate(-134,10) scale(1,1)"><path fill="none" stroke="#000000" d="M 892.8373251423759 156.209517756016 L 903 152 L 892.8373251423758 147.790482243984 L 892.8373251423759 156.209517756016" stroke-miterlimit="10"/></g><g transform="translate(-134,10) scale(1,1)"><g><path fill="none" stroke="none"/><text fill="#000000" stroke="none" font-family="Roboto" font-size="15px" font-style="normal" font-weight="normal" text-decoration="none" x="657.5" y="149.5">2 : Transfert des données de l'utilisateur</text></g></g><g transform="translate(-134,10) scale(1,1)"><rect fill="#ffffff" stroke="none" x="903" y="152" width="13" height="28"/></g><g transform="translate(-134,10) scale(1,1)"><path fill="none" stroke="#000000" d="M 903 152 L 916 152 L 916 180 L 903 180 L 903 152 Z Z" stroke-miterlimit="10"/></g><g transform="translate(-134,10) scale(1,1)"><path fill="none" stroke="#000000" d="M 910 192 L 940 192 L 940 212 L 916 212" stroke-miterlimit="10"/></g><g transform="translate(-134,10) scale(1,1)"><path fill="#000000" stroke="none" d="M 926.1626748576241 207.790482243984 L 916 212 L 926.1626748576241 216.209517756016"/></g><g transform="translate(-134,10) scale(1,1)"><path fill="none" stroke="#000000" d="M 926.1626748576241 207.790482243984 L 916 212 L 926.1626748576241 216.209517756016 L 926.1626748576241 207.790482243984" stroke-miterlimit="10"/></g><g transform="translate(-134,10) scale(1,1)"><g><path fill="none" stroke="none"/><text fill="#000000" stroke="none" font-family="Roboto" font-size="15px" font-style="normal" font-weight="normal" text-decoration="none" x="919.5" y="208.5">3 : Création et enregistrement des entités nécessaires</text></g></g><g transform="translate(-134,10) scale(1,1)"><rect fill="#ffffff" stroke="none" x="903" y="212" width="13" height="28"/></g><g transform="translate(-134,10) scale(1,1)"><path fill="none" stroke="#000000" d="M 903 212 L 916 212 L 916 240 L 903 240 L 903 212 Z Z" stroke-miterlimit="10"/></g><g transform="translate(-134,10) scale(1,1)"><path fill="none" stroke="#000000" d="M 910 256 L 677 256" stroke-miterlimit="10" stroke-dasharray="3"/></g><g transform="translate(-134,10) scale(1,1)"><path fill="none" stroke="#000000" d="M 687.1626748576241 251.790482243984 L 677 256 L 687.1626748576241 260.209517756016" stroke-miterlimit="10"/></g><g transform="translate(-134,10) scale(1,1)"><g><path fill="none" stroke="none"/><text fill="#000000" stroke="none" font-family="Roboto" font-size="15px" font-style="normal" font-weight="normal" text-decoration="none" x="721.5" y="273.5">4 : Retour des entités</text></g></g><g transform="translate(-134,10) scale(1,1)"><path fill="none" stroke="#000000" d="M 677 283 L 380 283" stroke-miterlimit="10" stroke-dasharray="3"/></g><g transform="translate(-134,10) scale(1,1)"><path fill="none" stroke="#000000" d="M 390.16267485762415 278.790482243984 L 380 283 L 390.16267485762415 287.209517756016" stroke-miterlimit="10"/></g><g transform="translate(-134,10) scale(1,1)"><g><path fill="none" stroke="none"/><text fill="#000000" stroke="none" font-family="Roboto" font-size="15px" font-style="normal" font-weight="normal" text-decoration="none" x="404.5" y="300.5">5 : Confirmation visuel de l'état "prêt"</text></g></g><g transform="translate(-134,10) scale(1,1)"><path fill="none" stroke="#000000" d="M 380 361 L 670 361" stroke-miterlimit="10"/></g><g transform="translate(-134,10) scale(1,1)"><path fill="#000000" stroke="none" d="M 659.8373251423759 365.209517756016 L 670 361 L 659.8373251423758 356.790482243984"/></g><g transform="translate(-134,10) scale(1,1)"><path fill="none" stroke="#000000" d="M 659.8373251423759 365.209517756016 L 670 361 L 659.8373251423758 356.790482243984 L 659.8373251423759 365.209517756016" stroke-miterlimit="10"/></g><g transform="translate(-134,10) scale(1,1)"><g><path fill="none" stroke="none"/><text fill="#000000" stroke="none" font-family="Roboto" font-size="15px" font-style="normal" font-weight="normal" text-decoration="none" x="412.5" y="358.5">6 : Demande de début d'exécution</text></g></g><g transform="translate(-134,10) scale(1,1)"><rect fill="#ffffff" stroke="none" x="670" y="361" width="13" height="28"/></g><g transform="translate(-134,10) scale(1,1)"><path fill="none" stroke="#000000" d="M 670 361 L 683 361 L 683 389 L 670 389 L 670 361 Z Z" stroke-miterlimit="10"/></g><g transform="translate(-134,10) scale(1,1)"><path fill="none" stroke="#000000" d="M 677 412 L 1401 412" stroke-miterlimit="10"/></g><g transform="translate(-134,10) scale(1,1)"><path fill="#000000" stroke="none" d="M 1390.837325142376 416.209517756016 L 1401 412 L 1390.837325142376 407.790482243984"/></g><g transform="translate(-134,10) scale(1,1)"><path fill="none" stroke="#000000" d="M 1390.837325142376 416.209517756016 L 1401 412 L 1390.837325142376 407.790482243984 L 1390.837325142376 416.209517756016" stroke-miterlimit="10"/></g><g transform="translate(-134,10) scale(1,1)"><g><path fill="none" stroke="none"/><text fill="#000000" stroke="none" font-family="Roboto" font-size="15px" font-style="normal" font-weight="normal" text-decoration="none" x="969.5" y="409.5">7 : Début d'exécution</text></g></g><g transform="translate(-134,10) scale(1,1)"><rect fill="#ffffff" stroke="none" x="1401" y="412" width="13" height="28"/></g><g transform="translate(-134,10) scale(1,1)"><path fill="none" stroke="#000000" d="M 1401 412 L 1414 412 L 1414 440 L 1401 440 L 1401 412 Z Z" stroke-miterlimit="10"/></g><g transform="translate(-134,10) scale(1,1)"><path fill="none" stroke="#000000" d="M 1408 472 L 916 472" stroke-miterlimit="10"/></g><g transform="translate(-134,10) scale(1,1)"><path fill="#000000" stroke="none" d="M 926.1626748576241 467.790482243984 L 916 472 L 926.1626748576241 476.209517756016"/></g><g transform="translate(-134,10) scale(1,1)"><path fill="none" stroke="#000000" d="M 926.1626748576241 467.790482243984 L 916 472 L 926.1626748576241 476.209517756016 L 926.1626748576241 467.790482243984" stroke-miterlimit="10"/></g><g transform="translate(-134,10) scale(1,1)"><g><path fill="none" stroke="none"/><text fill="#000000" stroke="none" font-family="Roboto" font-size="15px" font-style="normal" font-weight="normal" text-decoration="none" x="1085.5" y="489.5">8 : Requête des entités</text></g></g><g transform="translate(-134,10) scale(1,1)"><rect fill="#ffffff" stroke="none" x="903" y="472" width="13" height="28"/></g><g transform="translate(-134,10) scale(1,1)"><path fill="none" stroke="#000000" d="M 903 472 L 916 472 L 916 500 L 903 500 L 903 472 Z Z" stroke-miterlimit="10"/></g><g transform="translate(-134,10) scale(1,1)"><path fill="none" stroke="#000000" d="M 910 516 L 1408 516" stroke-miterlimit="10" stroke-dasharray="3"/></g><g transform="translate(-134,10) scale(1,1)"><path fill="none" stroke="#000000" d="M 1397.837325142376 520.209517756016 L 1408 516 L 1397.837325142376 511.790482243984" stroke-miterlimit="10"/></g><g transform="translate(-134,10) scale(1,1)"><g><path fill="none" stroke="none"/><text fill="#000000" stroke="none" font-family="Roboto" font-size="15px" font-style="normal" font-weight="normal" text-decoration="none" x="1089.5" y="532.5">9 : Retour des entités</text></g></g><g transform="translate(-134,10) scale(1,1)"><path fill="none" stroke="#000000" d="M 1408 592 L 1438 592 L 1438 612 L 1414 612" stroke-miterlimit="10"/></g><g transform="translate(-134,10) scale(1,1)"><path fill="#000000" stroke="none" d="M 1424.162674857624 607.790482243984 L 1414 612 L 1424.162674857624 616.209517756016"/></g><g transform="translate(-134,10) scale(1,1)"><path fill="none" stroke="#000000" d="M 1424.162674857624 607.790482243984 L 1414 612 L 1424.162674857624 616.209517756016 L 1424.162674857624 607.790482243984" stroke-miterlimit="10"/></g><g transform="translate(-134,10) scale(1,1)"><g><path fill="none" stroke="none"/><text fill="#000000" stroke="none" font-family="Roboto" font-size="15px" font-style="normal" font-weight="normal" text-decoration="none" x="1429.5" y="608.5">10 : Obtention de l'opération suivante</text></g></g><g transform="translate(-134,10) scale(1,1)"><rect fill="#ffffff" stroke="none" x="1401" y="612" width="13" height="28"/></g><g transform="translate(-134,10) scale(1,1)"><path fill="none" stroke="#000000" d="M 1401 612 L 1414 612 L 1414 640 L 1401 640 L 1401 612 Z Z" stroke-miterlimit="10"/></g><g transform="translate(-134,10) scale(1,1)"><path fill="none" stroke="#000000" d="M 1408 704 L 1438 704 L 1438 724 L 1414 724" stroke-miterlimit="10"/></g><g transform="translate(-134,10) scale(1,1)"><path fill="#000000" stroke="none" d="M 1424.162674857624 719.790482243984 L 1414 724 L 1424.162674857624 728.209517756016"/></g><g transform="translate(-134,10) scale(1,1)"><path fill="none" stroke="#000000" d="M 1424.162674857624 719.790482243984 L 1414 724 L 1424.162674857624 728.209517756016 L 1424.162674857624 719.790482243984" stroke-miterlimit="10"/></g><g transform="translate(-134,10) scale(1,1)"><g><path fill="none" stroke="none"/><text fill="#000000" stroke="none" font-family="Roboto" font-size="15px" font-style="normal" font-weight="normal" text-decoration="none" x="1436.5" y="720.5">11 : requiertVerrou()</text></g></g><g transform="translate(-134,10) scale(1,1)"><rect fill="#ffffff" stroke="none" x="1401" y="724" width="13" height="28"/></g><g transform="translate(-134,10) scale(1,1)"><path fill="none" stroke="#000000" d="M 1401 724 L 1414 724 L 1414 752 L 1401 752 L 1401 724 Z Z" stroke-miterlimit="10"/></g><g transform="translate(-134,10) scale(1,1)"><path fill="none" stroke="#000000" d="M 1408 800 L 1438 800 L 1438 820 L 1414 820" stroke-miterlimit="10"/></g><g transform="translate(-134,10) scale(1,1)"><path fill="#000000" stroke="none" d="M 1424.162674857624 815.790482243984 L 1414 820 L 1424.162674857624 824.209517756016"/></g><g transform="translate(-134,10) scale(1,1)"><path fill="none" stroke="#000000" d="M 1424.162674857624 815.790482243984 L 1414 820 L 1424.162674857624 824.209517756016 L 1424.162674857624 815.790482243984" stroke-miterlimit="10"/></g><g transform="translate(-134,10) scale(1,1)"><g><path fill="none" stroke="none"/><text fill="#000000" stroke="none" font-family="Roboto" font-size="15px" font-style="normal" font-weight="normal" text-decoration="none" x="1435.5" y="816.5">12 : obtentionVerrou()</text></g></g><g transform="translate(-134,10) scale(1,1)"><rect fill="#ffffff" stroke="none" x="1401" y="820" width="13" height="28"/></g><g transform="translate(-134,10) scale(1,1)"><path fill="none" stroke="#000000" d="M 1401 820 L 1414 820 L 1414 848 L 1401 848 L 1401 820 Z Z" stroke-miterlimit="10"/></g><g transform="translate(-134,10) scale(1,1)"><path fill="none" stroke="#000000" d="M 1408 880 L 1438 880 L 1438 900 L 1414 900" stroke-miterlimit="10"/></g><g transform="translate(-134,10) scale(1,1)"><path fill="#000000" stroke="none" d="M 1424.162674857624 895.790482243984 L 1414 900 L 1424.162674857624 904.209517756016"/></g><g transform="translate(-134,10) scale(1,1)"><path fill="none" stroke="#000000" d="M 1424.162674857624 895.790482243984 L 1414 900 L 1424.162674857624 904.209517756016 L 1424.162674857624 895.790482243984" stroke-miterlimit="10"/></g><g transform="translate(-134,10) scale(1,1)"><g><path fill="none" stroke="none"/><text fill="#000000" stroke="none" font-family="Roboto" font-size="15px" font-style="normal" font-weight="normal" text-decoration="none" x="1436.5" y="896.5">13 : miseEnAttente()</text></g></g><g transform="translate(-134,10) scale(1,1)"><rect fill="#ffffff" stroke="none" x="1401" y="900" width="13" height="28"/></g><g transform="translate(-134,10) scale(1,1)"><path fill="none" stroke="#000000" d="M 1401 900 L 1414 900 L 1414 928 L 1401 928 L 1401 900 Z Z" stroke-miterlimit="10"/></g><g transform="translate(-134,10) scale(1,1)"><path fill="none" stroke="#000000" d="M 1408 1008 L 1438 1008 L 1438 1028 L 1414 1028" stroke-miterlimit="10"/></g><g transform="translate(-134,10) scale(1,1)"><path fill="#000000" stroke="none" d="M 1424.162674857624 1023.790482243984 L 1414 1028 L 1424.162674857624 1032.2095177560159"/></g><g transform="translate(-134,10) scale(1,1)"><path fill="none" stroke="#000000" d="M 1424.162674857624 1023.790482243984 L 1414 1028 L 1424.162674857624 1032.2095177560159 L 1424.162674857624 1023.790482243984" stroke-miterlimit="10"/></g><g transform="translate(-134,10) scale(1,1)"><g><path fill="none" stroke="none"/><text fill="#000000" stroke="none" font-family="Roboto" font-size="15px" font-style="normal" font-weight="normal" text-decoration="none" x="1428.5" y="1024.5">14 : resolutionOperationsExecutables()</text></g></g><g transform="translate(-134,10) scale(1,1)"><rect fill="#ffffff" stroke="none" x="1401" y="1028" width="13" height="28"/></g><g transform="translate(-134,10) scale(1,1)"><path fill="none" stroke="#000000" d="M 1401 1028 L 1414 1028 L 1414 1056 L 1401 1056 L 1401 1028 Z Z" stroke-miterlimit="10"/></g><g transform="translate(-134,10) scale(1,1)"><path fill="none" stroke="#000000" d="M 1408 1088 L 1438 1088 L 1438 1108 L 1414 1108" stroke-miterlimit="10"/></g><g transform="translate(-134,10) scale(1,1)"><path fill="#000000" stroke="none" d="M 1424.162674857624 1103.7904822439841 L 1414 1108 L 1424.162674857624 1112.2095177560159"/></g><g transform="translate(-134,10) scale(1,1)"><path fill="none" stroke="#000000" d="M 1424.162674857624 1103.7904822439841 L 1414 1108 L 1424.162674857624 1112.2095177560159 L 1424.162674857624 1103.7904822439841" stroke-miterlimit="10"/></g><g transform="translate(-134,10) scale(1,1)"><g><path fill="none" stroke="none"/><text fill="#000000" stroke="none" font-family="Roboto" font-size="15px" font-style="normal" font-weight="normal" text-decoration="none" x="1420.5" y="1104.5">15 : ajoutOperationsExecutablesListeExecution()</text></g></g><g transform="translate(-134,10) scale(1,1)"><rect fill="#ffffff" stroke="none" x="1401" y="1108" width="13" height="28"/></g><g transform="translate(-134,10) scale(1,1)"><path fill="none" stroke="#000000" d="M 1401 1108 L 1414 1108 L 1414 1136 L 1401 1136 L 1401 1108 Z Z" stroke-miterlimit="10"/></g><g transform="translate(-134,10) scale(1,1)"><path fill="none" stroke="#000000" d="M 1408 1216 L 916 1216" stroke-miterlimit="10"/></g><g transform="translate(-134,10) scale(1,1)"><path fill="#000000" stroke="none" d="M 926.1626748576241 1211.7904822439841 L 916 1216 L 926.1626748576241 1220.2095177560159"/></g><g transform="translate(-134,10) scale(1,1)"><path fill="none" stroke="#000000" d="M 926.1626748576241 1211.7904822439841 L 916 1216 L 926.1626748576241 1220.2095177560159 L 926.1626748576241 1211.7904822439841" stroke-miterlimit="10"/></g><g transform="translate(-134,10) scale(1,1)"><g><path fill="none" stroke="none"/><text fill="#000000" stroke="none" font-family="Roboto" font-size="15px" font-style="normal" font-weight="normal" text-decoration="none" x="1093.5" y="1233.5">16 : MàJ des entités</text></g></g><g transform="translate(-134,10) scale(1,1)"><rect fill="#ffffff" stroke="none" x="903" y="1216" width="13" height="28"/></g><g transform="translate(-134,10) scale(1,1)"><path fill="none" stroke="#000000" d="M 903 1216 L 916 1216 L 916 1244 L 903 1244 L 903 1216 Z Z" stroke-miterlimit="10"/></g><g transform="translate(-134,10) scale(1,1)"><path fill="none" stroke="#000000" d="M 910 1256 L 683 1256" stroke-miterlimit="10"/></g><g transform="translate(-134,10) scale(1,1)"><path fill="#000000" stroke="none" d="M 693.1626748576241 1251.7904822439841 L 683 1256 L 693.1626748576241 1260.2095177560159"/></g><g transform="translate(-134,10) scale(1,1)"><path fill="none" stroke="#000000" d="M 693.1626748576241 1251.7904822439841 L 683 1256 L 693.1626748576241 1260.2095177560159 L 693.1626748576241 1251.7904822439841" stroke-miterlimit="10"/></g><g transform="translate(-134,10) scale(1,1)"><g><path fill="none" stroke="none"/><text fill="#000000" stroke="none" font-family="Roboto" font-size="15px" font-style="normal" font-weight="normal" text-decoration="none" x="715.5" y="1273.5">17 : Notification de MàJ</text></g></g><g transform="translate(-134,10) scale(1,1)"><rect fill="#ffffff" stroke="none" x="670" y="1256" width="13" height="28"/></g><g transform="translate(-134,10) scale(1,1)"><path fill="none" stroke="#000000" d="M 670 1256 L 683 1256 L 683 1284 L 670 1284 L 670 1256 Z Z" stroke-miterlimit="10"/></g><g transform="translate(-134,10) scale(1,1)"><path fill="none" stroke="#000000" d="M 677 1314 L 386 1314" stroke-miterlimit="10"/></g><g transform="translate(-134,10) scale(1,1)"><path fill="#000000" stroke="none" d="M 396.16267485762415 1309.7904822439841 L 386 1314 L 396.16267485762415 1318.2095177560159"/></g><g transform="translate(-134,10) scale(1,1)"><path fill="none" stroke="#000000" d="M 396.16267485762415 1309.7904822439841 L 386 1314 L 396.16267485762415 1318.2095177560159 L 396.16267485762415 1309.7904822439841" stroke-miterlimit="10"/></g><g transform="translate(-134,10) scale(1,1)"><g><path fill="none" stroke="none"/><text fill="#000000" stroke="none" font-family="Roboto" font-size="15px" font-style="normal" font-weight="normal" text-decoration="none" x="414.5" y="1331.5">18 : Rendu/notifications visuel(les)</text></g></g><g transform="translate(-134,10) scale(1,1)"><rect fill="#ffffff" stroke="none" x="373" y="1314" width="13" height="28"/></g><g transform="translate(-134,10) scale(1,1)"><path fill="none" stroke="#000000" d="M 373 1314 L 386 1314 L 386 1342 L 373 1342 L 373 1314 Z Z" stroke-miterlimit="10"/></g></g></svg>