<?xml version="1.0" encoding="utf-8"?>
<!-- Generator: Adobe Illustrator 21.1.0, SVG Export Plug-In . SVG Version: 6.00 Build 0)  -->
<svg version="1.1" xmlns="http://www.w3.org/2000/svg" xmlns:xlink="http://www.w3.org/1999/xlink" x="0px" y="0px"
	 viewBox="0 0 2944.8 2502.9" style="enable-background:new 0 0 2944.8 2502.9;" xml:space="preserve">
<style type="text/css">
	.st0{fill:#FFFFFF;stroke:#000000;stroke-miterlimit:10;}
	.st1{fill:none;stroke:#000000;stroke-miterlimit:10;}
	.st2{fill:#FFFFFF;}
	.st3{font-family:'Roboto-Regular';}
	.st4{font-size:22.7982px;}
	.st5{font-family:'Roboto-Bold';}
	.st6{opacity:0.2;fill:#C0C0C0;enable-background:new    ;}
	.st7{fill:none;stroke:#000000;stroke-miterlimit:10;stroke-dasharray:3;}
	.st8{fill:none;stroke:#000000;stroke-miterlimit:10;stroke-dasharray:10,3;}
</style>
<g id="Calque_2">
	<rect class="st0" width="2944.8" height="2511.3"/>
</g>
<g id="Calque_1">
	<g>
		<g transform="translate(-134,10) scale(1,1)">
			<path class="st1" d="M141.3-10h2937.5v2595.5H141.3V-10"/>
		</g>
		<g transform="translate(-134,10) scale(1,1)">
			<path class="st2" d="M141.3-10v38.6h271.5l19.3-19.3V-10H141.3"/>
		</g>
		<g transform="translate(-134,10) scale(1,1)">
			<path class="st1" d="M141.3-10v38.6h271.5l19.3-19.3V-10H141.3L141.3-10"/>
		</g>
		<g transform="translate(-134,10) scale(1,1)">
			<g>
				<path class="st1" d="M-111.2-10"/>
				<text transform="matrix(1 0 0 1 268.8778 20.6903)" class="st3 st4">échange type</text>
			</g>
		</g>
		<g transform="translate(-134,10) scale(1,1)">
			<g>
				<path d="M-111.2-10"/>
				<text transform="matrix(1 0 0 1 150.1083 20.6903)" class="st5 st4">interaction</text>
			</g>
		</g>
		<g transform="translate(-134,10) scale(1,1)">
			<rect x="504.4" y="72.4" class="st6" width="125.8" height="68.4"/>
		</g>
		<g transform="translate(-134,10) scale(1,1)">
			<rect x="492.1" y="60.1" class="st2" width="125.8" height="68.4"/>
		</g>
		<g transform="translate(-134,10) scale(1,1)">
			<path class="st1" d="M492.1,60.1h125.8v68.4H492.1V60.1z"/>
		</g>
		<g transform="translate(-134,10) scale(1,1)">
			<g>
				<path class="st1" d="M-111.2-10"/>
				<text transform="matrix(1 0 0 1 531.8187 94.3465)" class="st5 st4">User</text>
			</g>
		</g>
		<g transform="translate(-134,10) scale(1,1)">
			<path class="st7" d="M556.1,130.3v2371"/>
		</g>
		<g transform="translate(-134,10) scale(1,1)">
			<rect x="939.3" y="72.4" class="st6" width="261.3" height="68.4"/>
		</g>
		<g transform="translate(-134,10) scale(1,1)">
			<rect x="927" y="60.1" class="st2" width="261.3" height="68.4"/>
		</g>
		<g transform="translate(-134,10) scale(1,1)">
			<path class="st1" d="M927,60.1h261.3v68.4H927V60.1z"/>
		</g>
		<g transform="translate(-134,10) scale(1,1)">
			<g>
				<path class="st1" d="M-111.2-10"/>
				<text transform="matrix(1 0 0 1 945.5492 94.3465)" class="st5 st4">Application Graphique</text>
			</g>
		</g>
		<g transform="translate(-134,10) scale(1,1)">
			<path class="st7" d="M1059.4,130.3v2371"/>
		</g>
		<g transform="translate(-134,10) scale(1,1)">
			<rect x="1332.1" y="72.4" class="st6" width="304.5" height="68.4"/>
		</g>
		<g transform="translate(-134,10) scale(1,1)">
			<rect x="1319.8" y="60.1" class="st2" width="304.5" height="68.4"/>
		</g>
		<g transform="translate(-134,10) scale(1,1)">
			<path class="st1" d="M1319.8,60.1h304.5v68.4h-304.5V60.1z"/>
		</g>
		<g transform="translate(-134,10) scale(1,1)">
			<g>
				<path class="st1" d="M-111.2-10"/>
				<text transform="matrix(1 0 0 1 1346.1898 94.3465)" class="st5 st4">Gestionnaire de modèles</text>
			</g>
		</g>
		<g transform="translate(-134,10) scale(1,1)">
			<path class="st7" d="M1473.3,130.3v2371"/>
		</g>
		<g transform="translate(-134,10) scale(1,1)">
			<rect x="2187.9" y="72.4" class="st6" width="337.4" height="68.4"/>
		</g>
		<g transform="translate(-134,10) scale(1,1)">
			<rect x="2175.6" y="60.1" class="st2" width="337.4" height="68.4"/>
		</g>
		<g transform="translate(-134,10) scale(1,1)">
			<path class="st1" d="M2175.6,60.1H2513v68.4h-337.4V60.1z"/>
		</g>
		<g transform="translate(-134,10) scale(1,1)">
			<g>
				<path class="st1" d="M-111.2-10"/>
				<text transform="matrix(1 0 0 1 2204.438 94.3465)" class="st5 st4">Gestionnaire de contrôleurs</text>
			</g>
		</g>
		<g transform="translate(-134,10) scale(1,1)">
			<path class="st7" d="M2346.6,130.3v2371"/>
		</g>
		<g transform="translate(-134,10) scale(1,1)">
			<path class="st1" d="M450,958h2539.4v1543.3H450V958"/>
		</g>
		<g transform="translate(-134,10) scale(1,1)">
			<path class="st2" d="M450,958v38.6h516.2l19.3-19.3V958H450"/>
		</g>
		<g transform="translate(-134,10) scale(1,1)">
			<path class="st1" d="M450,958v38.6h516.2l19.3-19.3V958H450L450,958"/>
		</g>
		<g transform="translate(-134,10) scale(1,1)">
			<g>
				<path class="st1" d="M-111.2-10"/>
				<text transform="matrix(1 0 0 1 513.6112 988.7386)" class="st3 st4">Opération(s) restante(s) et non interblocage</text>
			</g>
		</g>
		<g transform="translate(-134,10) scale(1,1)">
			<g>
				<path d="M-111.2-10"/>
				<text transform="matrix(1 0 0 1 458.7611 988.7386)" class="st5 st4">loop</text>
			</g>
		</g>
		<g transform="translate(-134,10) scale(1,1)">
			<path class="st1" d="M1923.1,1182.5h785.7v505.1h-785.7V1182.5"/>
		</g>
		<g transform="translate(-134,10) scale(1,1)">
			<path class="st2" d="M1923.1,1182.5v38.6h53.4l19.3-19.3v-19.3H1923.1"/>
		</g>
		<g transform="translate(-134,10) scale(1,1)">
			<path class="st1" d="M1923.1,1182.5v38.6h53.4l19.3-19.3v-19.3H1923.1L1923.1,1182.5"/>
		</g>
		<g transform="translate(-134,10) scale(1,1)">
			<g>
				<path class="st1" d="M-111.2-10"/>
				<text transform="matrix(1 0 0 1 1931.8783 1213.2137)" class="st5 st4">alt</text>
			</g>
		</g>
		<g transform="translate(-134,10) scale(1,1)">
			<path class="st1" d="M2231.8,1350.9h434.9v294.6h-434.9V1350.9"/>
		</g>
		<g transform="translate(-134,10) scale(1,1)">
			<path class="st2" d="M2231.8,1350.9v38.6h53.4l19.3-19.3v-19.3H2231.8"/>
		</g>
		<g transform="translate(-134,10) scale(1,1)">
			<path class="st1" d="M2231.8,1350.9v38.6h53.4l19.3-19.3v-19.3H2231.8L2231.8,1350.9"/>
		</g>
		<g transform="translate(-134,10) scale(1,1)">
			<g>
				<path class="st1" d="M-111.2-10"/>
				<text transform="matrix(1 0 0 1 2240.5317 1381.5697)" class="st5 st4">alt</text>
			</g>
		</g>
		<g transform="translate(-134,10) scale(1,1)">
			<path class="st8" d="M2231.8,1492.9h434.9"/>
		</g>
		<g transform="translate(-134,10) scale(1,1)">
			<path class="st2" d="M1881,1014.2h275.3l17.5,17.5v64.9H1881V1014.2"/>
		</g>
		<g transform="translate(-134,10) scale(1,1)">
			<path class="st1" d="M1881,1014.2h275.3l17.5,17.5v64.9H1881V1014.2L1881,1014.2"/>
		</g>
		<g transform="translate(-134,10) scale(1,1)">
			<path class="st1" d="M2156.4,1014.2v17.5h17.5L2156.4,1014.2"/>
		</g>
		<g transform="translate(-134,10) scale(1,1)">
			<g>
				<path class="st1" d="M-111.2-10"/>
				<text transform="matrix(1 0 0 1 1889.7894 1045.7343)" class="st3 st4">l&apos;opération courante</text>
				<text transform="matrix(1 0 0 1 1889.7894 1068.5326)" class="st3 st4">requiert un verrrou</text>
			</g>
		</g>
		<g transform="translate(-134,10) scale(1,1)">
			<path class="st7" d="M2061.7,1100.1l61.4,80.7"/>
		</g>
		<g transform="translate(-134,10) scale(1,1)">
			<path class="st2" d="M2105.5,1224.6h191.2l17.5,17.5v68.4h-208.7V1224.6"/>
		</g>
		<g transform="translate(-134,10) scale(1,1)">
			<path class="st1" d="M2105.5,1224.6h191.2l17.5,17.5v68.4h-208.7V1224.6L2105.5,1224.6"/>
		</g>
		<g transform="translate(-134,10) scale(1,1)">
			<path class="st1" d="M2296.7,1224.6v17.5h17.5L2296.7,1224.6"/>
		</g>
		<g transform="translate(-134,10) scale(1,1)">
			<g>
				<path class="st1" d="M-111.2-10"/>
				<text transform="matrix(1 0 0 1 2114.2642 1256.1796)" class="st3 st4">possible d&apos;obtenir</text>
				<text transform="matrix(1 0 0 1 2114.2642 1278.9779)" class="st3 st4">le verrou</text>
			</g>
		</g>
		<g transform="translate(-134,10) scale(1,1)">
			<path class="st7" d="M2258.1,1314.1l36.8,35.1"/>
		</g>
		<g transform="translate(-134,10) scale(1,1)">
			<path class="st2" d="M1965.2,1519.2h191.2l17.5,17.5v68.4h-208.7V1519.2"/>
		</g>
		<g transform="translate(-134,10) scale(1,1)">
			<path class="st1" d="M1965.2,1519.2h191.2l17.5,17.5v68.4h-208.7V1519.2L1965.2,1519.2"/>
		</g>
		<g transform="translate(-134,10) scale(1,1)">
			<path class="st1" d="M2156.4,1519.2v17.5h17.5L2156.4,1519.2"/>
		</g>
		<g transform="translate(-134,10) scale(1,1)">
			<g>
				<path class="st1" d="M-111.2-10"/>
				<text transform="matrix(1 0 0 1 1973.9672 1550.8031)" class="st3 st4">impossible</text>
				<text transform="matrix(1 0 0 1 1973.9672 1573.6014)" class="st3 st4">d&apos;obtenir le verrou</text>
			</g>
		</g>
		<g transform="translate(-134,10) scale(1,1)">
			<path class="st7" d="M2177.4,1545.5l52.6-10.5"/>
		</g>
		<g transform="translate(-134,10) scale(1,1)">
			<path class="st1" d="M1951.2,1729.7h968v294.6h-968V1729.7"/>
		</g>
		<g transform="translate(-134,10) scale(1,1)">
			<path class="st2" d="M1951.2,1729.7v38.6h53.4l19.3-19.3v-19.3H1951.2"/>
		</g>
		<g transform="translate(-134,10) scale(1,1)">
			<path class="st1" d="M1951.2,1729.7v38.6h53.4l19.3-19.3v-19.3H1951.2L1951.2,1729.7"/>
		</g>
		<g transform="translate(-134,10) scale(1,1)">
			<g>
				<path class="st1" d="M-111.2-10"/>
				<text transform="matrix(1 0 0 1 1959.9379 1760.3715)" class="st5 st4">alt</text>
			</g>
		</g>
		<g transform="translate(-134,10) scale(1,1)">
			<path class="st2" d="M1670.6,1701.6h177.1l17.5,17.5v68.4h-194.7V1701.6"/>
		</g>
		<g transform="translate(-134,10) scale(1,1)">
			<path class="st1" d="M1670.6,1701.6h177.1l17.5,17.5v68.4h-194.7V1701.6L1670.6,1701.6"/>
		</g>
		<g transform="translate(-134,10) scale(1,1)">
			<path class="st1" d="M1847.7,1701.6v17.5h17.5L1847.7,1701.6"/>
		</g>
		<g transform="translate(-134,10) scale(1,1)">
			<g>
				<path class="st1" d="M-111.2-10"/>
				<text transform="matrix(1 0 0 1 1679.3441 1733.1888)" class="st3 st4">l&apos;opération libère</text>
				<text transform="matrix(1 0 0 1 1679.3441 1755.9872)" class="st3 st4">son verrou</text>
			</g>
		</g>
		<g transform="translate(-134,10) scale(1,1)">
			<path class="st7" d="M1868.7,1764.8l80.7,15.8"/>
		</g>
		<g transform="translate(-134,10) scale(1,1)">
			<path class="st2" d="M1979.2,1855.9h289.4l17.5,17.5v107h-306.9V1855.9"/>
		</g>
		<g transform="translate(-134,10) scale(1,1)">
			<path class="st1" d="M1979.2,1855.9h289.4l17.5,17.5v107h-306.9V1855.9L1979.2,1855.9"/>
		</g>
		<g transform="translate(-134,10) scale(1,1)">
			<path class="st1" d="M2268.6,1855.9v17.5h17.5L2268.6,1855.9"/>
		</g>
		<g transform="translate(-134,10) scale(1,1)">
			<g>
				<path class="st1" d="M-111.2-10"/>
				<text transform="matrix(1 0 0 1 1987.9965 1887.5155)" class="st3 st4">ajoute les opérations</text>
				<text transform="matrix(1 0 0 1 1987.9965 1910.3143)" class="st3 st4">exécutables à la liste</text>
				<text transform="matrix(1 0 0 1 1987.9965 1933.1122)" class="st3 st4">d&apos;exécution (à la suite de</text>
				<text transform="matrix(1 0 0 1 1987.9965 1955.91)" class="st3 st4">l&apos;opération courante)</text>
			</g>
		</g>
		<g transform="translate(-134,10) scale(1,1)">
			<path class="st2" d="M239.5,789.7h233.2l17.5,17.5v114H239.5V789.7"/>
		</g>
		<g transform="translate(-134,10) scale(1,1)">
			<path class="st1" d="M239.5,789.7h233.2l17.5,17.5v114H239.5V789.7L239.5,789.7"/>
		</g>
		<g transform="translate(-134,10) scale(1,1)">
			<path class="st1" d="M472.8,789.7v17.5h17.5L472.8,789.7"/>
		</g>
		<g transform="translate(-134,10) scale(1,1)">
			<g>
				<path class="st1" d="M-111.2-10"/>
				<text transform="matrix(1 0 0 1 248.3158 821.2591)" class="st3 st4">On continue</text>
				<text transform="matrix(1 0 0 1 248.3158 844.0574)" class="st3 st4">l&apos;exécution tant qu&apos;il</text>
				<text transform="matrix(1 0 0 1 248.3158 866.8558)" class="st3 st4">reste des opérations et</text>
				<text transform="matrix(1 0 0 1 248.3158 889.6541)" class="st3 st4">qu&apos;il n&apos;y a pas</text>
				<text transform="matrix(1 0 0 1 248.3158 912.4525)" class="st3 st4">d&apos;interblocage</text>
			</g>
		</g>
		<g transform="translate(-134,10) scale(1,1)">
			<path class="st7" d="M471,924.7l49.1,31.6"/>
		</g>
		<g transform="translate(-134,10) scale(1,1)">
			<path class="st1" d="M555.2,174.1h491"/>
		</g>
		<g transform="translate(-134,10) scale(1,1)">
			<path d="M1028.4,181.5l17.8-7.4l-17.8-7.4"/>
		</g>
		<g transform="translate(-134,10) scale(1,1)">
			<path class="st1" d="M1028.4,181.5l17.8-7.4l-17.8-7.4V181.5"/>
		</g>
		<g transform="translate(-134,10) scale(1,1)">
			<g>
				<path class="st1" d="M-111.2-10"/>
				<text transform="matrix(1 0 0 1 631.7635 168.0018)" class="st3 st4">1 : Choix du fichier de transaction</text>
			</g>
		</g>
		<g transform="translate(-134,10) scale(1,1)">
			<rect x="1046.3" y="174.1" class="st2" width="22.8" height="49.1"/>
		</g>
		<g transform="translate(-134,10) scale(1,1)">
			<path class="st1" d="M1046.3,174.1h22.8v49.1h-22.8V174.1z"/>
		</g>
		<g transform="translate(-134,10) scale(1,1)">
			<path class="st1" d="M1058.5,256.6h401.6"/>
		</g>
		<g transform="translate(-134,10) scale(1,1)">
			<path d="M1442.3,263.9l17.8-7.4l-17.8-7.4"/>
		</g>
		<g transform="translate(-134,10) scale(1,1)">
			<path class="st1" d="M1442.3,263.9l17.8-7.4l-17.8-7.4V263.9"/>
		</g>
		<g transform="translate(-134,10) scale(1,1)">
			<g>
				<path class="st1" d="M-111.2-10"/>
				<text transform="matrix(1 0 0 1 1056.2894 250.4266)" class="st3 st4">2 : Transfert des données de l&apos;utilisateur</text>
			</g>
		</g>
		<g transform="translate(-134,10) scale(1,1)">
			<rect x="1460.1" y="256.6" class="st2" width="22.8" height="49.1"/>
		</g>
		<g transform="translate(-134,10) scale(1,1)">
			<path class="st1" d="M1460.1,256.6h22.8v49.1h-22.8V256.6z"/>
		</g>
		<g transform="translate(-134,10) scale(1,1)">
			<path class="st1" d="M1472.4,326.7h52.6v35.1h-42.1"/>
		</g>
		<g transform="translate(-134,10) scale(1,1)">
			<path d="M1500.8,354.4l-17.8,7.4l17.8,7.4"/>
		</g>
		<g transform="translate(-134,10) scale(1,1)">
			<path class="st1" d="M1500.8,354.4l-17.8,7.4l17.8,7.4V354.4"/>
		</g>
		<g transform="translate(-134,10) scale(1,1)">
			<g>
				<path class="st1" d="M-111.2-10"/>
				<text transform="matrix(1 0 0 1 1530.4535 353.8954)" class="st3 st4">3 : Création et enregistrement des entités nécessaires</text>
			</g>
		</g>
		<g transform="translate(-134,10) scale(1,1)">
			<rect x="1460.1" y="361.8" class="st2" width="22.8" height="49.1"/>
		</g>
		<g transform="translate(-134,10) scale(1,1)">
			<path class="st1" d="M1460.1,361.8h22.8v49.1h-22.8V361.8z"/>
		</g>
		<g transform="translate(-134,10) scale(1,1)">
			<path class="st7" d="M1472.4,438.9h-413.9"/>
		</g>
		<g transform="translate(-134,10) scale(1,1)">
			<path class="st1" d="M1076.4,431.6l-17.8,7.4l17.8,7.4"/>
		</g>
		<g transform="translate(-134,10) scale(1,1)">
			<g>
				<path class="st1" d="M-111.2-10"/>
				<text transform="matrix(1 0 0 1 1157.5365 467.8866)" class="st3 st4">4 : Retour des entités</text>
			</g>
		</g>
		<g transform="translate(-134,10) scale(1,1)">
			<path class="st7" d="M1058.5,486.3H555.2"/>
		</g>
		<g transform="translate(-134,10) scale(1,1)">
			<path class="st1" d="M573,478.9l-17.8,7.4l17.8,7.4"/>
		</g>
		<g transform="translate(-134,10) scale(1,1)">
			<g>
				<path class="st1" d="M-111.2-10"/>
				<text transform="matrix(1 0 0 1 618.0565 515.2371)" class="st3 st4">5 : Confirmation visuel de l&apos;état &quot;prêt&quot;</text>
			</g>
		</g>
		<g transform="translate(-134,10) scale(1,1)">
			<path class="st1" d="M555.2,623.1h491"/>
		</g>
		<g transform="translate(-134,10) scale(1,1)">
			<path d="M1028.4,630.5l17.8-7.4l-17.8-7.4"/>
		</g>
		<g transform="translate(-134,10) scale(1,1)">
			<path class="st1" d="M1028.4,630.5l17.8-7.4l-17.8-7.4V630.5"/>
		</g>
		<g transform="translate(-134,10) scale(1,1)">
			<g>
				<path class="st1" d="M-111.2-10"/>
				<text transform="matrix(1 0 0 1 630.5326 616.952)" class="st3 st4">6 : Demande de début d&apos;exécution</text>
			</g>
		</g>
		<g transform="translate(-134,10) scale(1,1)">
			<rect x="1046.3" y="623.1" class="st2" width="22.8" height="49.1"/>
		</g>
		<g transform="translate(-134,10) scale(1,1)">
			<path class="st1" d="M1046.3,623.1h22.8v49.1h-22.8V623.1z"/>
		</g>
		<g transform="translate(-134,10) scale(1,1)">
			<path class="st1" d="M1058.5,712.5h1274.9"/>
		</g>
		<g transform="translate(-134,10) scale(1,1)">
			<path d="M2315.7,719.9l17.8-7.4l-17.8-7.4"/>
		</g>
		<g transform="translate(-134,10) scale(1,1)">
			<path class="st1" d="M2315.7,719.9l17.8-7.4l-17.8-7.4V719.9"/>
		</g>
		<g transform="translate(-134,10) scale(1,1)">
			<g>
				<path class="st1" d="M-111.2-10"/>
				<text transform="matrix(1 0 0 1 1590.5472 706.3914)" class="st3 st4">7 : Début d&apos;exécution</text>
			</g>
		</g>
		<g transform="translate(-134,10) scale(1,1)">
			<rect x="2333.5" y="712.5" class="st2" width="22.8" height="49.1"/>
		</g>
		<g transform="translate(-134,10) scale(1,1)">
			<path class="st1" d="M2333.5,712.5h22.8v49.1h-22.8V712.5z"/>
		</g>
		<g transform="translate(-134,10) scale(1,1)">
			<path class="st1" d="M2345.8,817.8h-862.8"/>
		</g>
		<g transform="translate(-134,10) scale(1,1)">
			<path d="M1500.8,810.4l-17.8,7.4l17.8,7.4"/>
		</g>
		<g transform="translate(-134,10) scale(1,1)">
			<path class="st1" d="M1500.8,810.4l-17.8,7.4l17.8,7.4V810.4"/>
		</g>
		<g transform="translate(-134,10) scale(1,1)">
			<g>
				<path class="st1" d="M-111.2-10"/>
				<text transform="matrix(1 0 0 1 1798.3256 846.6883)" class="st3 st4">8 : Requête des entités</text>
			</g>
		</g>
		<g transform="translate(-134,10) scale(1,1)">
			<rect x="1460.1" y="817.8" class="st2" width="22.8" height="49.1"/>
		</g>
		<g transform="translate(-134,10) scale(1,1)">
			<path class="st1" d="M1460.1,817.8h22.8v49.1h-22.8V817.8z"/>
		</g>
		<g transform="translate(-134,10) scale(1,1)">
			<path class="st7" d="M1472.4,894.9h873.3"/>
		</g>
		<g transform="translate(-134,10) scale(1,1)">
			<path class="st1" d="M2327.9,902.3l17.8-7.4l-17.8-7.4"/>
		</g>
		<g transform="translate(-134,10) scale(1,1)">
			<g>
				<path class="st1" d="M-111.2-10"/>
				<text transform="matrix(1 0 0 1 1804.6566 922.0975)" class="st3 st4">9 : Retour des entités</text>
			</g>
		</g>
		<g transform="translate(-134,10) scale(1,1)">
			<path class="st1" d="M2345.8,1028.2h52.6v35.1h-42.1"/>
		</g>
		<g transform="translate(-134,10) scale(1,1)">
			<path d="M2374.1,1055.9l-17.8,7.4l17.8,7.4"/>
		</g>
		<g transform="translate(-134,10) scale(1,1)">
			<path class="st1" d="M2374.1,1055.9l-17.8,7.4l17.8,7.4V1055.9"/>
		</g>
		<g transform="translate(-134,10) scale(1,1)">
			<g>
				<path class="st1" d="M-111.2-10"/>
				<text transform="matrix(1 0 0 1 2413.272 1055.3798)" class="st3 st4">10 : Obtention de l&apos;opération suivante</text>
			</g>
		</g>
		<g transform="translate(-134,10) scale(1,1)">
			<rect x="2333.5" y="1063.3" class="st2" width="22.8" height="49.1"/>
		</g>
		<g transform="translate(-134,10) scale(1,1)">
			<path class="st1" d="M2333.5,1063.3h22.8v49.1h-22.8V1063.3z"/>
		</g>
		<g transform="translate(-134,10) scale(1,1)">
			<path class="st1" d="M2345.8,1224.6h52.6v35.1h-42.1"/>
		</g>
		<g transform="translate(-134,10) scale(1,1)">
			<path d="M2374.1,1252.3l-17.8,7.4l17.8,7.4"/>
		</g>
		<g transform="translate(-134,10) scale(1,1)">
			<path class="st1" d="M2374.1,1252.3l-17.8,7.4l17.8,7.4V1252.3"/>
		</g>
		<g transform="translate(-134,10) scale(1,1)">
			<g>
				<path class="st1" d="M-111.2-10"/>
				<text transform="matrix(1 0 0 1 2411.5181 1251.7953)" class="st3 st4">11 : requiertVerrou()</text>
			</g>
		</g>
		<g transform="translate(-134,10) scale(1,1)">
			<rect x="2333.5" y="1259.7" class="st2" width="22.8" height="49.1"/>
		</g>
		<g transform="translate(-134,10) scale(1,1)">
			<path class="st1" d="M2333.5,1259.7h22.8v49.1h-22.8V1259.7z"/>
		</g>
		<g transform="translate(-134,10) scale(1,1)">
			<path class="st1" d="M2345.8,1393h52.6v35.1h-42.1"/>
		</g>
		<g transform="translate(-134,10) scale(1,1)">
			<path d="M2374.1,1420.7l-17.8,7.4l17.8,7.4"/>
		</g>
		<g transform="translate(-134,10) scale(1,1)">
			<path class="st1" d="M2374.1,1420.7l-17.8,7.4l17.8,7.4V1420.7"/>
		</g>
		<g transform="translate(-134,10) scale(1,1)">
			<g>
				<path class="st1" d="M-111.2-10"/>
				<text transform="matrix(1 0 0 1 2411.5181 1420.1517)" class="st3 st4">12 : obtentionVerrou()</text>
			</g>
		</g>
		<g transform="translate(-134,10) scale(1,1)">
			<rect x="2333.5" y="1428" class="st2" width="22.8" height="49.1"/>
		</g>
		<g transform="translate(-134,10) scale(1,1)">
			<path class="st1" d="M2333.5,1428h22.8v49.1h-22.8V1428z"/>
		</g>
		<g transform="translate(-134,10) scale(1,1)">
			<path class="st1" d="M2345.8,1533.3h52.6v35.1h-42.1"/>
		</g>
		<g transform="translate(-134,10) scale(1,1)">
			<path d="M2374.1,1561l-17.8,7.4l17.8,7.4"/>
		</g>
		<g transform="translate(-134,10) scale(1,1)">
			<path class="st1" d="M2374.1,1561l-17.8,7.4l17.8,7.4V1561"/>
		</g>
		<g transform="translate(-134,10) scale(1,1)">
			<g>
				<path class="st1" d="M-111.2-10"/>
				<text transform="matrix(1 0 0 1 2411.5181 1560.4486)" class="st3 st4">13 : miseEnAttente()</text>
			</g>
		</g>
		<g transform="translate(-134,10) scale(1,1)">
			<rect x="2333.5" y="1568.3" class="st2" width="22.8" height="49.1"/>
		</g>
		<g transform="translate(-134,10) scale(1,1)">
			<path class="st1" d="M2333.5,1568.3h22.8v49.1h-22.8V1568.3z"/>
		</g>
		<g transform="translate(-134,10) scale(1,1)">
			<path class="st1" d="M2345.8,1757.7h52.6v35.1h-42.1"/>
		</g>
		<g transform="translate(-134,10) scale(1,1)">
			<path d="M2374.1,1785.4l-17.8,7.4l17.8,7.4"/>
		</g>
		<g transform="translate(-134,10) scale(1,1)">
			<path class="st1" d="M2374.1,1785.4l-17.8,7.4l17.8,7.4V1785.4"/>
		</g>
		<g transform="translate(-134,10) scale(1,1)">
			<g>
				<path class="st1" d="M-111.2-10"/>
				<text transform="matrix(1 0 0 1 2411.5181 1784.9232)" class="st3 st4">14 : resolutionOperationsExecutables()</text>
			</g>
		</g>
		<g transform="translate(-134,10) scale(1,1)">
			<rect x="2333.5" y="1792.8" class="st2" width="22.8" height="49.1"/>
		</g>
		<g transform="translate(-134,10) scale(1,1)">
			<path class="st1" d="M2333.5,1792.8h22.8v49.1h-22.8V1792.8z"/>
		</g>
		<g transform="translate(-134,10) scale(1,1)">
			<path class="st1" d="M2345.8,1898h52.6v35.1h-42.1"/>
		</g>
		<g transform="translate(-134,10) scale(1,1)">
			<path d="M2374.1,1925.7l-17.8,7.4l17.8,7.4"/>
		</g>
		<g transform="translate(-134,10) scale(1,1)">
			<path class="st1" d="M2374.1,1925.7l-17.8,7.4l17.8,7.4V1925.7"/>
		</g>
		<g transform="translate(-134,10) scale(1,1)">
			<g>
				<path class="st1" d="M-111.2-10"/>
				<text transform="matrix(1 0 0 1 2404.5034 1925.2206)" class="st3 st4">15 : ajoutOperationsExecutablesListeExecution()</text>
			</g>
		</g>
		<g transform="translate(-134,10) scale(1,1)">
			<rect x="2333.5" y="1933.1" class="st2" width="22.8" height="49.1"/>
		</g>
		<g transform="translate(-134,10) scale(1,1)">
			<path class="st1" d="M2333.5,1933.1h22.8v49.1h-22.8V1933.1z"/>
		</g>
		<g transform="translate(-134,10) scale(1,1)">
			<path class="st1" d="M2345.8,2122.5h-862.8"/>
		</g>
		<g transform="translate(-134,10) scale(1,1)">
			<path d="M1500.8,2115.1l-17.8,7.4l17.8,7.4"/>
		</g>
		<g transform="translate(-134,10) scale(1,1)">
			<path class="st1" d="M1500.8,2115.1l-17.8,7.4l17.8,7.4V2115.1"/>
		</g>
		<g transform="translate(-134,10) scale(1,1)">
			<g>
				<path class="st1" d="M-111.2-10"/>
				<text transform="matrix(1 0 0 1 1809.9955 2151.449)" class="st3 st4">16 : MàJ des entités</text>
			</g>
		</g>
		<g transform="translate(-134,10) scale(1,1)">
			<rect x="1460.1" y="2122.5" class="st2" width="22.8" height="49.1"/>
		</g>
		<g transform="translate(-134,10) scale(1,1)">
			<path class="st1" d="M1460.1,2122.5h22.8v49.1h-22.8V2122.5z"/>
		</g>
		<g transform="translate(-134,10) scale(1,1)">
			<path class="st1" d="M1472.4,2192.7h-403.4"/>
		</g>
		<g transform="translate(-134,10) scale(1,1)">
			<path d="M1086.9,2185.3l-17.8,7.4l17.8,7.4"/>
		</g>
		<g transform="translate(-134,10) scale(1,1)">
			<path class="st1" d="M1086.9,2185.3l-17.8,7.4l17.8,7.4V2185.3"/>
		</g>
		<g transform="translate(-134,10) scale(1,1)">
			<g>
				<path class="st1" d="M-111.2-10"/>
				<text transform="matrix(1 0 0 1 1147.0922 2221.5974)" class="st3 st4">17 : Notification de MàJ</text>
			</g>
		</g>
		<g transform="translate(-134,10) scale(1,1)">
			<rect x="1046.3" y="2192.7" class="st2" width="22.8" height="49.1"/>
		</g>
		<g transform="translate(-134,10) scale(1,1)">
			<path class="st1" d="M1046.3,2192.7h22.8v49.1h-22.8V2192.7z"/>
		</g>
		<g transform="translate(-134,10) scale(1,1)">
			<path class="st1" d="M1058.5,2294.4H565.7"/>
		</g>
		<g transform="translate(-134,10) scale(1,1)">
			<path d="M583.6,2287l-17.8,7.4l17.8,7.4"/>
		</g>
		<g transform="translate(-134,10) scale(1,1)">
			<path class="st1" d="M583.6,2287l-17.8,7.4l17.8,7.4V2287"/>
		</g>
		<g transform="translate(-134,10) scale(1,1)">
			<g>
				<path class="st1" d="M-111.2-10"/>
				<text transform="matrix(1 0 0 1 633.2557 2323.3123)" class="st3 st4">18 : Rendu/notifications visuel(les)</text>
			</g>
		</g>
		<g transform="translate(-134,10) scale(1,1)">
			<rect x="542.9" y="2294.4" class="st2" width="22.8" height="49.1"/>
		</g>
		<g transform="translate(-134,10) scale(1,1)">
			<path class="st1" d="M542.9,2294.4h22.8v49.1h-22.8V2294.4z"/>
		</g>
	</g>
</g>
</svg>
